<mxfile host="app.diagrams.net" modified="2021-09-06T04:16:26.335Z" agent="5.0 (Macintosh; Intel Mac OS X 10_15_7) AppleWebKit/537.36 (KHTML, like Gecko) Chrome/92.0.4515.159 Safari/537.36" etag="2_lUz2X4KbdPJx0wdx-_" version="14.9.6" type="github">
  <diagram id="TS6XiNSqxpk8gcfFhq-v" name="Page-1">
    <mxGraphModel dx="762" dy="542" grid="1" gridSize="10" guides="1" tooltips="1" connect="1" arrows="1" fold="1" page="1" pageScale="1" pageWidth="827" pageHeight="1169" math="0" shadow="0">
      <root>
        <mxCell id="0" />
        <mxCell id="1" parent="0" />
        <mxCell id="DP-uBIAViVgrm5IQE9GF-3" value="" style="swimlane;startSize=0;dashed=1;fillColor=#b0e3e6;swimlaneLine=0;strokeColor=#99CCFF;strokeWidth=2;" vertex="1" parent="1">
          <mxGeometry x="200" y="250" width="600" height="290" as="geometry" />
        </mxCell>
        <mxCell id="DP-uBIAViVgrm5IQE9GF-12" value="" style="shape=image;verticalLabelPosition=bottom;labelBackgroundColor=#ffffff;verticalAlign=top;aspect=fixed;imageAspect=0;image=data:image/svg+xml,PHN2ZyB4bWxuczpkYz0iaHR0cDovL3B1cmwub3JnL2RjL2VsZW1lbnRzLzEuMS8iIHhtbG5zOmNjPSJodHRwOi8vY3JlYXRpdmVjb21tb25zLm9yZy9ucyMiIHhtbG5zOnJkZj0iaHR0cDovL3d3dy53My5vcmcvMTk5OS8wMi8yMi1yZGYtc3ludGF4LW5zIyIgeG1sbnM6c3ZnPSJodHRwOi8vd3d3LnczLm9yZy8yMDAwL3N2ZyIgeG1sbnM9Imh0dHA6Ly93d3cudzMub3JnLzIwMDAvc3ZnIiB4bWxuczpzb2RpcG9kaT0iaHR0cDovL3NvZGlwb2RpLnNvdXJjZWZvcmdlLm5ldC9EVEQvc29kaXBvZGktMC5kdGQiIHhtbG5zOmlua3NjYXBlPSJodHRwOi8vd3d3Lmlua3NjYXBlLm9yZy9uYW1lc3BhY2VzL2lua3NjYXBlIiB2ZXJzaW9uPSIxLjEiIGlkPSJzdmc3OTMzNSIgaW5rc2NhcGU6dmVyc2lvbj0iMC45Mi4zICgyNDA1NTQ2LCAyMDE4LTAzLTExKSIgc29kaXBvZGk6ZG9jbmFtZT0iZG9ja2VyLnN2ZyIgeD0iMHB4IiB5PSIwcHgiIHZpZXdCb3g9IjAgMCA5OS4yMiA4My4yMzk4NCIgeG1sOnNwYWNlPSJwcmVzZXJ2ZSIgd2lkdGg9Ijk5LjIyMDAwMSIgaGVpZ2h0PSI4My4yMzk4MzgiPjxtZXRhZGF0YSBpZD0ibWV0YWRhdGExMTIxIj48cmRmOlJERj48Y2M6V29yayByZGY6YWJvdXQ9IiI+PGRjOmZvcm1hdD5pbWFnZS9zdmcreG1sPC9kYzpmb3JtYXQ+PGRjOnR5cGUgcmRmOnJlc291cmNlPSJodHRwOi8vcHVybC5vcmcvZGMvZGNtaXR5cGUvU3RpbGxJbWFnZSIvPjxkYzp0aXRsZS8+PC9jYzpXb3JrPjwvcmRmOlJERj48L21ldGFkYXRhPjxkZWZzIGlkPSJkZWZzMTExOSI+JiN4YTsJJiN4YTsmI3hhOwkmI3hhOyYjeGE7CSYjeGE7CSYjeGE7CSYjeGE7JiN4YTsJJiN4YTsJJiN4YTsJJiN4YTsmI3hhOwkmI3hhOwkmI3hhOwkmI3hhOyYjeGE7CSYjeGE7CSYjeGE7CSYjeGE7JiN4YTsJJiN4YTsmI3hhOwkmI3hhOwkmI3hhOwkmI3hhOyYjeGE7CSYjeGE7CSYjeGE7CSYjeGE7JiN4YTsJJiN4YTsJJiN4YTsJJiN4YTsmI3hhOwkmI3hhOwkmI3hhOwkmI3hhOyYjeGE7CSYjeGE7CSYjeGE7CSYjeGE7JiN4YTsJJiN4YTsJJiN4YTsJJiN4YTsmI3hhOwkmI3hhOwkmI3hhOwkmI3hhOyYjeGE7CSYjeGE7CSYjeGE7CSYjeGE7JiN4YTsJJiN4YTsJJiN4YTsJJiN4YTsmI3hhOwkmI3hhOyYjeGE7CSYjeGE7JiN4YTsJJiN4YTsmI3hhOwkmI3hhOyYjeGE7CSYjeGE7JiN4YTsJCSYjeGE7CSYjeGE7CQkmI3hhOwkmI3hhOwkJJiN4YTsJJiN4YTsJCSYjeGE7CSYjeGE7CQkmI3hhOwkmI3hhOwkJJiN4YTsJJiN4YTsJCSYjeGE7CSYjeGE7CQkmI3hhOwkmI3hhOwkJJiN4YTsJJiN4YTsJCSYjeGE7CSYjeGE7CQkmI3hhOwkmI3hhOwkJJiN4YTsJJiN4YTsJCSYjeGE7CSYjeGE7CQkmI3hhOwkmI3hhOwkJJiN4YTsJJiN4YTsJCSYjeGE7CSYjeGE7CQkmI3hhOwkmI3hhOwkJJiN4YTsJJiN4YTsJCSYjeGE7CSYjeGE7CQkmI3hhOwkmI3hhOwkJCSYjeGE7CQkmI3hhOwkJCSYjeGE7CQkmI3hhOwkJCSYjeGE7CQkmI3hhOwkJCSYjeGE7CQk8L2RlZnM+JiN4YTs8ZmlsdGVyIGlkPSJmaWx0ZXJfMiI+JiN4YTsJPGZlR2F1c3NpYW5CbHVyIGlkPSJmZUdhdXNzaWFuQmx1cjc5MTUwIiBzdGREZXZpYXRpb249IjIiLz4mI3hhOzwvZmlsdGVyPiYjeGE7PHNvZGlwb2RpOm5hbWVkdmlldyBib3JkZXJjb2xvcj0iIzY2NjY2NiIgYm9yZGVyb3BhY2l0eT0iMSIgZml0LW1hcmdpbi1ib3R0b209IjAiIGZpdC1tYXJnaW4tbGVmdD0iMCIgZml0LW1hcmdpbi1yaWdodD0iMCIgZml0LW1hcmdpbi10b3A9IjAiIGdyaWR0b2xlcmFuY2U9IjEwIiBndWlkZXRvbGVyYW5jZT0iMTAiIGlkPSJuYW1lZHZpZXc3OTMzNyIgaW5rc2NhcGU6Y3VycmVudC1sYXllcj0ic3ZnNzkzMzUiIGlua3NjYXBlOmN4PSItMjQuMjM0MzIxIiBpbmtzY2FwZTpjeT0iNTUuNzcxNTY5IiBpbmtzY2FwZTpwYWdlb3BhY2l0eT0iMCIgaW5rc2NhcGU6cGFnZXNoYWRvdz0iMiIgaW5rc2NhcGU6d2luZG93LWhlaWdodD0iMTAxNyIgaW5rc2NhcGU6d2luZG93LW1heGltaXplZD0iMSIgaW5rc2NhcGU6d2luZG93LXdpZHRoPSIxOTIwIiBpbmtzY2FwZTp3aW5kb3cteD0iLTgiIGlua3NjYXBlOndpbmRvdy15PSItOCIgaW5rc2NhcGU6em9vbT0iMy4yOTk1NDQ5IiBvYmplY3R0b2xlcmFuY2U9IjEwIiBwYWdlY29sb3I9IiNmZmZmZmYiIHNob3dncmlkPSJmYWxzZSI+JiN4YTsJPC9zb2RpcG9kaTpuYW1lZHZpZXc+JiN4YTsmI3hhOzxwYXRoIGlkPSJwYXRoNzkxNjMiIGlua3NjYXBlOmNvbm5lY3Rvci1jdXJ2YXR1cmU9IjAiIHN0eWxlPSJmaWxsOiMzZjU3NjUiIGQ9Im0gNzMuNDYsNzggYyAyLjIzLC0xLjkxIDQuNDYsLTMuODMgNi42OSwtNS43NSAwLjc2LC0wLjY2IDEuNTksLTEuMzQgMi4zNSwtMi4wMyAtMC42MSwtMC43NiAtMS42MiwtMS4zMSAtMi40OCwtMS42NCAtMS43MywtMC42NiAtMy40NCwtMC40NCAtNS4wMywwLjQ4IC0yLjA5LDEuMiAtMi45NywzLjEyIC0yLjg5LDUuNSAwLjAzLDAuOTQgMC4yOCwxLjg0IDAuNzgsMi42NCAwLjE3LDAuMjggMC4zNywwLjU1IDAuNTgsMC44IHogbSAyLjU4LDEuODEgYyAxLjEsMC4zOCAyLjM0LDAuMzMgMy40NywwLjE0IDAuNTcsLTAuMjUgMi4wNCwtMC44OSAyLjU4LC0wLjggbCAwLjA4LDAuMDIgMC4wOCwwLjA0IGMgMC4zMywwLjE2IDAuNjQsMC4zOCAwLjgxLDAuNzIgMC40LDAuNzkgMC4yMSwxLjU3IC0wLjU3LDIuMDIgbCAtMC4yNSwwLjE1IGMgLTIuODUsMS42NSAtNS44OSwxLjQyIC04LjczLC0wLjEyIC0xLjM2LC0wLjczIC0yLjQsLTEuODIgLTMuMTcsLTMuMTYgbCAtMC4xOCwtMC4zMSBjIC0xLjgzLC0zLjE3IC0xLjU4LC02LjUgMC40OCwtOS41MiAwLjcyLC0xLjA0IDEuNjUsLTEuODUgMi43NCwtMi40OCBsIDAuNDEsLTAuMjMgYyAyLjY5LC0xLjU1IDUuNTcsLTEuNDUgOC4zMywtMC4wOSAxLjQ4LDAuNzMgMi42OCwxLjgzIDMuNTEsMy4yNiBsIDAuMTUsMC4yNiBjIDAuNiwxLjA0IC0wLjE4LDEuOTUgLTAuOTgsMi41NyAtMC45NCwwLjcyIC0xLjg4LDEuNTkgLTIuNzgsMi4zNiAtMS45OSwxLjcyIC0zLjk4LDMuNDUgLTUuOTgsNS4xNyB6IE0gOTcuNDEsNjUuMzkgaCAwLjMgYyAwLjksMCAxLjUxLDAuNjEgMS41MSwxLjUgMCwxLjI1IC0xLjIsMS41NyAtMi4yMiwxLjU3IC0xLjM2LDAgLTIuNjQsMC44MSAtMy41NywxLjczIC0xLjE3LDEuMTUgLTEuNjcsMi42MSAtMS42Nyw0LjIyIHYgNy4yOCBjIDAsMC44MyAtMC41MiwxLjUxIC0xLjM5LDEuNTEgaCAtMC4yNCBjIC0wLjg2LDAgLTEuMzgsLTAuNjggLTEuMzgsLTEuNTEgdiAtNy43IGMgMCwtMi45NSAxLjQ0LC01LjM2IDMuODQsLTcuMDYgMS40MywtMS4wMSAzLjA3LC0xLjU0IDQuODIsLTEuNTQgeiBtIC0zNy40Nyw1LjE2IGMgMS4xNiwtMS4xNyAyLjM0LC0yLjMzIDMuNTIsLTMuNDggMC4zMywtMC4zMiAxLjU4LC0xLjY4IDIuMDgsLTEuNjggaCAwLjUzIGwgMC4wNiwwLjAxIGMgMC42OSwwLjE0IDEuMiwwLjU4IDEuMiwxLjMxIHYgMC4zIGMgMCwwLjUgLTAuNTksMS4wOSAtMC45MSwxLjQzIC0wLjY5LDAuNzQgLTEuNDIsMS40NCAtMi4xMywyLjE2IGwgLTMuNjMsMy42OSBjIDEuNTcsMS41NiAzLjEzLDMuMTMgNC42OCw0LjcxIDAuNDMsMC40NCAwLjg2LDAuODggMS4yOCwxLjMyIDAuMTUsMC4xNiAwLjM3LDAuMzUgMC41LDAuNTcgMC4xMywwLjIxIDAuMjEsMC40NCAwLjIxLDAuNjggdiAwLjMxIGwgLTAuMDEsMC4wNyBjIC0wLjE3LDAuNjkgLTAuNjEsMS4yNCAtMS4zNywxLjI0IGggLTAuMjQgYyAtMC41LDAgLTEuMDYsLTAuNTYgLTEuNCwtMC44OCAtMC43LC0wLjY2IC0xLjM4LC0xLjM2IC0yLjA3LC0yLjAzIGwgLTIuMzEsLTIuMjcgdiAzLjYyIGMgMCwwLjg0IC0wLjUyLDEuNTEgLTEuMzgsMS41MSBoIC0wLjI0IGMgLTAuODYsMCAtMS4zOCwtMC42NyAtMS4zOCwtMS41MSBWIDYxLjIyIGMgMCwtMC44MyAwLjUyLC0xLjUgMS4zOCwtMS41IGggMC4yNCBjIDAuODYsMCAxLjM4LDAuNjcgMS4zOCwxLjUgdiA5LjMzIHogbSAtOS43NSwtMi4wMyBjIC0wLjQ2LC0wLjIxIC0xLjMxLC0wLjI5IC0xLjgsLTAuMyAtMi41MSwtMC4xIC00LjMzLDEuMzIgLTUuNCwzLjUzIC0wLjM2LDAuNzcgLTAuNTMsMS41OCAtMC41MywyLjQyIDAsMi41OCAxLjM1LDQuMzggMy42NSw1LjQ4IDAuODQsMC40IDEuOTIsMC40OCAyLjg0LDAuNDggMC44MSwwIDEuOTUsLTAuNSAyLjY2LC0wLjg0IGwgMC4xMywtMC4wNiBoIDAuNTYgbCAwLjA2LDAuMDIgYyAwLjY4LDAuMTQgMS4yLDAuNTcgMS4yLDEuMzEgdiAwLjMgYyAwLDEuODMgLTMuMzUsMi4yNSAtNC42MywyLjM0IC00LjUsMC4zMSAtNy44NywtMi4xNyAtOS4xNSwtNi40NiAtMC4yMywtMC43NSAtMC4zMywtMS40OSAtMC4zMywtMi4yNyB2IC0wLjYgYyAwLC0zLjI2IDEuNjIsLTUuODQgNC40MiwtNy41IDEuMywtMC43NyAyLjczLC0xLjE2IDQuMjUsLTEuMTYgaCAwLjU5IGMgMS42LDAgMy4wOCwwLjQ1IDQuNCwxLjM2IGwgMC4xMSwwLjA3IDAuMDcsMC4xMiBjIDAuMTQsMC4yMyAwLjI3LDAuNTEgMC4yNywwLjc5IHYgMC4zIGMgMCwwLjc2IC0wLjU4LDEuMTggLTEuMjcsMS4zMSBsIC0wLjA2LDAuMDEgaCAtMC4xOCBjIC0wLjQ1LDAgLTEuNDYsLTAuNDYgLTEuODYsLTAuNjUgeiBtIC0yNy40Miw1LjcxIGMgMCwyLjI5IDEuMTIsMy45NyAzLjA1LDUuMTUgMC45MSwwLjU2IDEuOSwwLjgxIDIuOTYsMC44MSAyLjI2LDAgMy45MywtMS4xNSA1LjA5LC0zLjA1IDAuNTYsLTAuOTEgMC44MSwtMS45MSAwLjgxLC0yLjk3IDAsLTIuMTIgLTEuMDMsLTMuNzUgLTIuNzgsLTQuOTIgLTAuOTYsLTAuNjUgLTIuMDIsLTAuOTcgLTMuMTgsLTAuOTcgLTIuNTIsMCAtNC4zMywxLjI3IC01LjQyLDMuNTMgLTAuMzcsMC43NiAtMC41MywxLjU4IC0wLjUzLDIuNDIgeiBtIDUuNjUsLTguOTYgaCAwLjQyIGMgMy40OSwwIDYuMTQsMS42OSA3LjgxLDQuNzMgMC42OCwxLjIyIDEuMDMsMi41NCAxLjAzLDMuOTQgdiAwLjU5IGMgMCwzLjI2IC0xLjYsNS44NiAtNC40MSw3LjUxIC0xLjMsMC43NiAtMi43NCwxLjE1IC00LjI1LDEuMTUgaCAtMC42IGMgLTMuMjYsMCAtNS44NSwtMS42MSAtNy41LC00LjQxIC0wLjc3LC0xLjMgLTEuMTYsLTIuNzQgLTEuMTYsLTQuMjUgdiAtMC41OSBjIDAsLTMuMjcgMS42MiwtNS44NSA0LjQxLC03LjUxIDEuMzEsLTAuNzcgMi43NCwtMS4xNiA0LjI1LC0xLjE2IHogTSAzLjA4LDc0LjIzIGMgMCwyLjM2IDEuMTQsNC4xMyAzLjIsNS4yNiAwLjg0LDAuNDUgMS43NCwwLjcgMi42OSwwLjcgMi4zMSwwIDQuMDMsLTEuMDkgNS4yMSwtMy4wNSAwLjU1LC0wLjkxIDAuODEsLTEuOTEgMC44MSwtMi45NyAwLC0yLjA0IC0wLjk3LC0zLjYzIC0yLjYyLC00LjgyIC0wLjk5LC0wLjcxIC0yLjEyLC0xLjA3IC0zLjM0LC0xLjA3IC0yLjUyLDAgLTQuMzMsMS4yNyAtNS40MiwzLjUzIC0wLjM3LDAuNzYgLTAuNTMsMS41OCAtMC41MywyLjQyIHogbSAxMS45MSwtNi43MiB2IC02LjM1IGMgMCwtMC44MyAwLjUyLC0xLjUgMS4zOCwtMS41IGggMC4yNCBjIDAuODcsMCAxLjM4LDAuNjcgMS4zOCwxLjUgdiAxMy4zNyBjIDAsMy4yNiAtMS42MSw1Ljg1IC00LjQxLDcuNTEgLTEuMywwLjc2IC0yLjc0LDEuMTYgLTQuMjUsMS4xNiBIIDguNzMgQyA1LjQ3LDgzLjIgMi44OCw4MS41OCAxLjIzLDc4Ljc4IDAuNDYsNzcuNDggMC4wNyw3Ni4wNCAwLjA3LDc0LjUzIHYgLTAuNTkgYyAwLC0zLjI2IDEuNjEsLTUuODYgNC40MSwtNy41MSAxLjMxLC0wLjc3IDIuNzQsLTEuMTYgNC4yNSwtMS4xNiBoIDAuNiBjIDIuMjEsMCA0LjA4LDAuODUgNS42NiwyLjI0IHoiLz4mI3hhOyYjeGE7PHBhdGggaWQ9InBhdGg3OTE3MSIgaW5rc2NhcGU6Y29ubmVjdG9yLWN1cnZhdHVyZT0iMCIgc3R5bGU9ImZpbGw6IzM5NGQ1NCIgZD0ibSA1Ny4yMywxNy43NSBoIDguODcgdiA5LjA3IGggNC40OSBjIDIuMDcsMCA0LjIsLTAuMzcgNi4xNiwtMS4wNCAwLjk2LC0wLjMyIDIuMDUsLTAuNzggMywtMS4zNSAtMS4yNiwtMS42NCAtMS44OSwtMy43IC0yLjA4LC01Ljc0IC0wLjI2LC0yLjc2IDAuMywtNi4zNyAyLjE3LC04LjUzIGwgMC45NCwtMS4wOCAxLjExLDAuODkgYyAyLjgsMi4yNSA1LjE1LDUuMzkgNS41Niw4Ljk3IDMuMzcsLTAuOTkgNy4zMywtMC43NiAxMC4zLDAuOTYgbCAxLjIyLDAuNyAtMC42NCwxLjI1IEMgOTUuODEsMjYuNzYgOTAuNTYsMjguMjcgODUuNDMsMjggNzcuNzUsNDcuMTQgNjEuMDIsNTYuMiA0MC43NSw1Ni4yIDMwLjI3LDU2LjIgMjAuNjYsNTIuMjggMTUuMTgsNDIuOTggTCAxNS4wOSw0Mi44MyAxNC4zLDQxLjIxIEMgMTIuNDUsMzcuMTIgMTEuODMsMzIuNjQgMTIuMjUsMjguMTYgbCAwLjEyLC0xLjM0IGggNy41OSB2IC05LjA3IGggOC44NyBWIDguODcgSCA0Ni41OCBWIDAgaCAxMC42NCB6Ii8+JiN4YTs8cGF0aCBkPSJtIDg1Ljk4MDMsMjEuMTAwMzMxIGMgMC41OSwtNC42MiAtMi44NywtOC4yNSAtNS4wMiwtOS45OCAtMi40NywyLjg2IC0yLjg1LDEwLjM1IDEuMDMsMTMuNTEgLTIuMTcsMS45MiAtNi43MywzLjY2IC0xMS40LDMuNjYgaCAtNTYuODcgYyAtMC40NSw0Ljg4IDAuNDEsOS4zNyAyLjM2LDEzLjIyIGwgMC42NSwxLjE4IGMgMC40MSwwLjY5IDAuODYsMS4zNiAxLjM0LDIuMDEgdiAwIGMgMi4zNCwwLjE1IDQuNDksMC4yIDYuNDYsMC4xNiAwLDAgMCwwIDAuMDEsMCAzLjg3LC0wLjA5IDcuMDMsLTAuNTQgOS40MywtMS4zNyAwLjM2LC0wLjEzIDAuNzUsMC4wNiAwLjg3LDAuNDIgMC4xMiwwLjM1IC0wLjA3LDAuNzQgLTAuNDIsMC44NyAtMC4zMiwwLjExIC0wLjY1LDAuMjEgLTEsMC4zMSB2IDAgYyAtMS44OSwwLjU0IC0zLjkxLDAuOSAtNi41MiwxLjA2IDAuMTYsMCAtMC4xNiwwLjAyIC0wLjE2LDAuMDIgLTAuMDksMC4wMSAtMC4yLDAuMDIgLTAuMjksMC4wMyAtMS4wMywwLjA1IC0yLjE0LDAuMDcgLTMuMjcsMC4wNyAtMS4yNCwwIC0yLjQ2LC0wLjAzIC0zLjgzLC0wLjEgbCAtMC4wMywwLjAzIGMgNC43Myw1LjMyIDEyLjE0LDguNTIgMjEuNDMsOC41MiAxOS42NSwwIDM2LjMyLC04LjcyIDQzLjcsLTI4LjI4IDUuMjQsMC41NCAxMC4yNywtMC43OSAxMi41NiwtNS4yNiAtMy42NCwtMi4xMSAtOC4zMywtMS40NCAtMTEuMDMsLTAuMDggeiIgc3R5bGU9ImZpbGw6IzAwYWFkYSIgaW5rc2NhcGU6Y29ubmVjdG9yLWN1cnZhdHVyZT0iMCIgaWQ9InBhdGg3OTE4MSIvPiYjeGE7PHBhdGggZD0ibSA4NS45Nzk3NiwyMS4xMDI3MjEgYyAwLjU5LC00LjYzIC0yLjg3LC04LjI2IC01LjAxLC05Ljk4IC0yLjQ4LDIuODYgLTIuODYsMTAuMzUgMS4wMiwxMy41MSAtMi4xNywxLjkyIC02LjczLDMuNjYgLTExLjQsMy42NiBoIC01My41IGMgLTAuMjMsNy40NyAyLjU0LDEzLjE0IDcuNDQsMTYuNTcgMCwwIDAsMCAwLjAxLDAgMy44NywtMC4wOSA3LjAzLC0wLjU1IDkuNDMsLTEuMzggMC4zNiwtMC4xMiAwLjc1LDAuMDcgMC44NywwLjQzIDAuMTIsMC4zNSAtMC4wNywwLjc0IC0wLjQyLDAuODYgLTAuMzIsMC4xMiAtMC42NSwwLjIyIC0xLDAuMzIgdiAwIGMgLTEuODksMC41MyAtNC4wOCwwLjk0IC02LjY5LDEuMTEgMCwwIC0wLjA3LC0wLjA3IC0wLjA3LC0wLjA2IDYuNjksMy40MyAxNi4zOSwzLjQxIDI3LjUxLC0wLjg2IDEyLjQ3LC00Ljc5IDI0LjA3LC0xMy45MSAzMi4xNiwtMjQuMzUgLTAuMTIsMC4wNSAtMC4yNCwwLjExIC0wLjM1LDAuMTcgeiIgc3R5bGU9ImZpbGw6IzI0YjhlYiIgaW5rc2NhcGU6Y29ubmVjdG9yLWN1cnZhdHVyZT0iMCIgaWQ9InBhdGg3OTE4OSIvPiYjeGE7PHBhdGggZD0ibSAxMy44MzEyMywzNC4yMjAzMzEgYyAwLjM1LDIuNjEgMS4xMiw1LjA2IDIuMjUsNy4yOCBsIDAuNjUsMS4xOSBjIDAuNDEsMC42OSAwLjg1LDEuMzYgMS4zNCwyLjAxIDIuMzQsMC4xNSA0LjQ5LDAuMiA2LjQ2LDAuMTYgMy44OCwtMC4wOSA3LjA0LC0wLjU0IDkuNDQsLTEuMzggMC4zNiwtMC4xMiAwLjc0LDAuMDcgMC44NywwLjQzIDAuMTIsMC4zNSAtMC4wNywwLjc0IC0wLjQyLDAuODcgLTAuMzIsMC4xMSAtMC42NiwwLjIxIC0xLDAuMzEgdiAwIGMgLTEuODksMC41NCAtNC4wNywwLjkyIC02LjY4LDEuMDggLTAuMDksMC4wMSAtMC4yNSwwLjAxIC0wLjM0LDAuMDIgLTEuMDIsMC4wNSAtMi4xMiwwLjA5IC0zLjI2LDAuMDkgLTEuMjQsMCAtMi41MSwtMC4wMiAtMy44NywtMC4wOSA0Ljc0LDUuMzIgMTIuMTksOC41MyAyMS40OCw4LjUzIDE2LjgyLDAgMzEuNDYsLTYuMzkgMzkuOTYsLTIwLjUgeiIgc3R5bGU9ImZpbGw6IzAwOGJiOCIgaW5rc2NhcGU6Y29ubmVjdG9yLWN1cnZhdHVyZT0iMCIgaWQ9InBhdGg3OTE5NyIvPiYjeGE7PHBhdGggZD0ibSAxNy42MDM4NiwzNC4yMTgzNDEgYyAxLjAxLDQuNTkgMy40Miw4LjE5IDYuOTMsMTAuNjQgMy44OCwtMC4wOCA3LjA0LC0wLjU0IDkuNDQsLTEuMzcgMC4zNSwtMC4xMyAwLjc0LDAuMDYgMC44NywwLjQyIDAuMTIsMC4zNiAtMC4wNywwLjc0IC0wLjQzLDAuODcgLTAuMzIsMC4xMSAtMC42NSwwLjIxIC0wLjk5LDAuMzEgdiAwIGMgLTEuODksMC41NCAtNC4xMiwwLjkyIC02LjczLDEuMDkgNi42OSwzLjQzIDE2LjM2LDMuMzggMjcuNDcsLTAuODkgNi43MywtMi41OSAxMy4yLC02LjQzIDE5LjAxLC0xMS4wNyB6IiBzdHlsZT0iZmlsbDojMDM5YmM2IiBpbmtzY2FwZTpjb25uZWN0b3ItY3VydmF0dXJlPSIwIiBpZD0icGF0aDc5MjA1Ii8+JiN4YTsmI3hhOzxwYXRoIGlkPSJwYXRoNzkyMTQiIGlua3NjYXBlOmNvbm5lY3Rvci1jdXJ2YXR1cmU9IjAiIHN0eWxlPSJmaWxsOiMzOTRkNTQiIGQ9Im0gMjMuMTYsNDYuMjUgYyAxLjEzLDAgMi4yMSwtMC4wMyAzLjI0LC0wLjA5IDAuMDksLTAuMDEgMC4xNywtMC4wMSAwLjI2LC0wLjAyIDAuMDEsMCAwLjAxLDAgMC4wMSwwIDIuNjEsLTAuMTYgNC44NywtMC41MSA2Ljc1LC0xLjA1IHYgMCBjIDAuMzUsLTAuMDkgMC42OCwtMC4yIDEsLTAuMzEgMC4zNSwtMC4xMiAwLjU0LC0wLjUxIDAuNDIsLTAuODcgLTAuMTIsLTAuMzUgLTAuNTEsLTAuNTQgLTAuODcsLTAuNDIgLTIuNCwwLjgzIC01LjU2LDEuMjkgLTkuNDMsMS4zNyB2IDAgYyAtMS45OCwwLjA1IC00LjEzLDAgLTYuNDcsLTAuMTUgdiAwIGMgLTAuMTIsLTAuMDEgLTAuMjQsLTAuMDIgLTAuMzYsLTAuMDMgLTAuMzcsLTAuMDIgLTAuNywwLjI2IC0wLjcyLDAuNjQgLTAuMDMsMC4zNyAwLjI1LDAuNyAwLjYzLDAuNzMgMC40OCwwLjAzIDAuOTUsMC4wNiAxLjQxLDAuMDggMC4wNywwIDAuMTQsMC4wMSAwLjIyLDAuMDEgMS4zNiwwLjA3IDIuNjcsMC4xMSAzLjkxLDAuMTEgeiIvPiYjeGE7PHBhdGggZD0ibSAyNy44ODI2LDE5Ljg2OTIzMSBoIDAuNjEgdiA2LjQgaCAtMC42MSB6IG0gLTEuMTYsMCBoIDAuNjMgdiA2LjQgaCAtMC42MyB6IG0gLTEuMTcsMCBoIDAuNjMgdiA2LjQgaCAtMC42MyB6IG0gLTEuMTYsMCBoIDAuNjMgdiA2LjQgaCAtMC42MyB6IG0gLTEuMTcsMCBoIDAuNjMgdiA2LjQgaCAtMC42MyB6IG0gLTEuMTQsMCBoIDAuNjEgdiA2LjQgaCAtMC42MSB6IG0gLTAuNjQsLTAuNjQgaCA3LjY5IHYgNy42OSBoIC03LjY5IHoiIHN0eWxlPSJmaWxsOiMwMGFjZDMiIGlua3NjYXBlOmNvbm5lY3Rvci1jdXJ2YXR1cmU9IjAiIGlkPSJwYXRoNzkyMjQiLz4mI3hhOzxwYXRoIGQ9Im0gMzYuNzU0NSwxMC45OTYwNjEgaCAwLjYxIHYgNi40MSBoIC0wLjYxIHogbSAtMS4xNiwwIGggMC42MyB2IDYuNDEgaCAtMC42MyB6IG0gLTEuMTcsMCBoIDAuNjMgdiA2LjQxIGggLTAuNjMgeiBtIC0xLjE2LDAgaCAwLjYzIHYgNi40MSBoIC0wLjYzIHogbSAtMS4xNywwIGggMC42MyB2IDYuNDEgaCAtMC42MyB6IG0gLTEuMTQsMCBoIDAuNjEgdiA2LjQxIGggLTAuNjEgeiBtIC0wLjY0LC0wLjY0IGggNy42OSB2IDcuNjkgaCAtNy42OSB6IiBzdHlsZT0iZmlsbDojMDBhY2QzIiBpbmtzY2FwZTpjb25uZWN0b3ItY3VydmF0dXJlPSIwIiBpZD0icGF0aDc5MjMyIi8+JiN4YTs8cGF0aCBkPSJtIDM2Ljc1NDUsMTkuODY5MjMxIGggMC42MSB2IDYuNCBoIC0wLjYxIHogbSAtMS4xNiwwIGggMC42MyB2IDYuNCBoIC0wLjYzIHogbSAtMS4xNywwIGggMC42MyB2IDYuNCBoIC0wLjYzIHogbSAtMS4xNiwwIGggMC42MyB2IDYuNCBoIC0wLjYzIHogbSAtMS4xNywwIGggMC42MyB2IDYuNCBoIC0wLjYzIHogbSAtMS4xNCwwIGggMC42MSB2IDYuNCBoIC0wLjYxIHogbSAtMC42NCwtMC42NCBoIDcuNjkgdiA3LjY5IGggLTcuNjkgeiIgc3R5bGU9ImZpbGw6IzIwYzJlZiIgaW5rc2NhcGU6Y29ubmVjdG9yLWN1cnZhdHVyZT0iMCIgaWQ9InBhdGg3OTI0MCIvPiYjeGE7PHBhdGggZD0ibSA0NS42Mjg5LDE5Ljg2OTIzMSBoIDAuNjEgdiA2LjQgaCAtMC42MSB6IG0gLTEuMTYsMCBoIDAuNjMgdiA2LjQgaCAtMC42MyB6IG0gLTEuMTcsMCBoIDAuNjMgdiA2LjQgaCAtMC42MyB6IG0gLTEuMTYsMCBoIDAuNjMgdiA2LjQgaCAtMC42MyB6IG0gLTEuMTcsMCBoIDAuNjMgdiA2LjQgaCAtMC42MyB6IG0gLTEuMTQsMCBoIDAuNjEgdiA2LjQgaCAtMC42MSB6IG0gLTAuNjQsLTAuNjQgaCA3LjY5IHYgNy42OSBoIC03LjY5IHoiIHN0eWxlPSJmaWxsOiMwMGFjZDMiIGlua3NjYXBlOmNvbm5lY3Rvci1jdXJ2YXR1cmU9IjAiIGlkPSJwYXRoNzkyNDgiLz4mI3hhOzxwYXRoIGQ9Im0gNDUuNjI4OSwxMC45OTYwNjEgaCAwLjYxIHYgNi40MSBoIC0wLjYxIHogbSAtMS4xNiwwIGggMC42MyB2IDYuNDEgaCAtMC42MyB6IG0gLTEuMTcsMCBoIDAuNjMgdiA2LjQxIGggLTAuNjMgeiBtIC0xLjE2LDAgaCAwLjYzIHYgNi40MSBoIC0wLjYzIHogbSAtMS4xNywwIGggMC42MyB2IDYuNDEgaCAtMC42MyB6IG0gLTEuMTQsMCBoIDAuNjEgdiA2LjQxIGggLTAuNjEgeiBtIC0wLjY0LC0wLjY0IGggNy42OSB2IDcuNjkgaCAtNy42OSB6IiBzdHlsZT0iZmlsbDojMjBjMmVmIiBpbmtzY2FwZTpjb25uZWN0b3ItY3VydmF0dXJlPSIwIiBpZD0icGF0aDc5MjU2Ii8+JiN4YTs8cGF0aCBkPSJtIDU0LjUwMDgsMTkuODY5MjMxIGggMC42MSB2IDYuNCBoIC0wLjYxIHogbSAtMS4xNiwwIGggMC42MyB2IDYuNCBoIC0wLjYzIHogbSAtMS4xNywwIGggMC42MyB2IDYuNCBoIC0wLjYzIHogbSAtMS4xNiwwIGggMC42MyB2IDYuNCBoIC0wLjYzIHogbSAtMS4xNywwIGggMC42MyB2IDYuNCBoIC0wLjYzIHogbSAtMS4xNCwwIGggMC42MSB2IDYuNCBoIC0wLjYxIHogbSAtMC42NCwtMC42NCBoIDcuNjkgdiA3LjY5IGggLTcuNjkgeiIgc3R5bGU9ImZpbGw6IzIwYzJlZiIgaW5rc2NhcGU6Y29ubmVjdG9yLWN1cnZhdHVyZT0iMCIgaWQ9InBhdGg3OTI2NCIvPiYjeGE7PHBhdGggZD0ibSA1NC41MDA4LDEwLjk5NjA2MSBoIDAuNjEgdiA2LjQxIGggLTAuNjEgeiBtIC0xLjE2LDAgaCAwLjYzIHYgNi40MSBoIC0wLjYzIHogbSAtMS4xNywwIGggMC42MyB2IDYuNDEgaCAtMC42MyB6IG0gLTEuMTYsMCBoIDAuNjMgdiA2LjQxIGggLTAuNjMgeiBtIC0xLjE3LDAgaCAwLjYzIHYgNi40MSBoIC0wLjYzIHogbSAtMS4xNCwwIGggMC42MSB2IDYuNDEgaCAtMC42MSB6IG0gLTAuNjQsLTAuNjQgaCA3LjY5IHYgNy42OSBoIC03LjY5IHoiIHN0eWxlPSJmaWxsOiMwMGFjZDMiIGlua3NjYXBlOmNvbm5lY3Rvci1jdXJ2YXR1cmU9IjAiIGlkPSJwYXRoNzkyNzIiLz4mI3hhOzxwYXRoIGQ9Im0gNTQuNTAwOCwyLjEyMjkzMSBoIDAuNjEgdiA2LjQxIGggLTAuNjEgeiBtIC0xLjE2LDAgaCAwLjYzIHYgNi40MSBoIC0wLjYzIHogbSAtMS4xNywwIGggMC42MyB2IDYuNDEgaCAtMC42MyB6IG0gLTEuMTYsMCBoIDAuNjMgdiA2LjQxIGggLTAuNjMgeiBtIC0xLjE3LDAgaCAwLjYzIHYgNi40MSBoIC0wLjYzIHogbSAtMS4xNCwwIGggMC42MSB2IDYuNDEgaCAtMC42MSB6IG0gLTAuNjQsLTAuNjQgaCA3LjY5IHYgNy42OSBoIC03LjY5IHoiIHN0eWxlPSJmaWxsOiMyMGMyZWYiIGlua3NjYXBlOmNvbm5lY3Rvci1jdXJ2YXR1cmU9IjAiIGlkPSJwYXRoNzkyODAiLz4mI3hhOzxwYXRoIGQ9Im0gNjMuMzc0LDE5Ljg2OTIzMSBoIDAuNjEgdiA2LjQgaCAtMC42MSB6IG0gLTEuMTYsMCBoIDAuNjMgdiA2LjQgaCAtMC42MyB6IG0gLTEuMTcsMCBoIDAuNjMgdiA2LjQgaCAtMC42MyB6IG0gLTEuMTYsMCBoIDAuNjMgdiA2LjQgaCAtMC42MyB6IG0gLTEuMTcsMCBoIDAuNjMgdiA2LjQgaCAtMC42MyB6IG0gLTEuMTQsMCBoIDAuNjEgdiA2LjQgaCAtMC42MSB6IG0gLTAuNjQsLTAuNjQgaCA3LjY5IHYgNy42OSBoIC03LjY5IHoiIHN0eWxlPSJmaWxsOiMwMGFjZDMiIGlua3NjYXBlOmNvbm5lY3Rvci1jdXJ2YXR1cmU9IjAiIGlkPSJwYXRoNzkyODgiLz4mI3hhOyYjeGE7PHBhdGggaWQ9InBhdGg3OTI5NyIgaW5rc2NhcGU6Y29ubmVjdG9yLWN1cnZhdHVyZT0iMCIgc3R5bGU9ImZpbGw6I2Q0ZWRmMSIgZD0ibSAzNy41MiwzOS4zOCBjIDEuMTcsMCAyLjEyLDAuOTUgMi4xMiwyLjEyIDAsMS4xOCAtMC45NSwyLjEzIC0yLjEyLDIuMTMgLTEuMTcsMCAtMi4xMiwtMC45NSAtMi4xMiwtMi4xMyAwLC0xLjE3IDAuOTUsLTIuMTIgMi4xMiwtMi4xMiB6Ii8+JiN4YTsmI3hhOzxwYXRoIGlkPSJwYXRoNzkzMDUiIGlua3NjYXBlOmNvbm5lY3Rvci1jdXJ2YXR1cmU9IjAiIHN0eWxlPSJmaWxsOiMzOTRkNTQiIGQ9Im0gMzcuNTIsMzkuOTkgYyAwLjE5LDAgMC4zOCwwLjA0IDAuNTUsMC4xIC0wLjE5LDAuMTEgLTAuMzEsMC4zMSAtMC4zMSwwLjU0IDAsMC4zNCAwLjI4LDAuNjIgMC42MiwwLjYyIDAuMjMsMCAwLjQ0LC0wLjEzIDAuNTQsLTAuMzMgMC4wOCwwLjE4IDAuMTIsMC4zOCAwLjEyLDAuNTkgMCwwLjg0IC0wLjY4LDEuNTIgLTEuNTIsMS41MiAtMC44NCwwIC0xLjUyLC0wLjY4IC0xLjUyLC0xLjUyIDAsLTAuODQgMC42OCwtMS41MiAxLjUyLC0xLjUyIHoiLz4mI3hhOyYjeGE7PHBhdGggaWQ9InBhdGg3OTMxMyIgaW5rc2NhcGU6Y29ubmVjdG9yLWN1cnZhdHVyZT0iMCIgc3R5bGU9ImZpbGw6IzM5NGQ1NCIgZD0ibSAwLDM0Ljk5IGggNDYuNDcgNS43NSA0Ni40NyBjIC0yLjE1LC0wLjU1IC02LjgsLTEuMjggLTYuMDMsLTQuMSAtMy45MSw0LjUyIC0xMy4zMywzLjE3IC0xNS43MSwwLjk0IC0yLjY1LDMuODUgLTE4LjA3LDIuMzkgLTE5LjE0LC0wLjYxIC0zLjMyLDMuOSAtMTMuNjEsMy45IC0xNi45MywwIEMgMzkuOCwzNC4yMSAyNC4zOSwzNS42NyAyMS43NCwzMS44MyAxOS4zNiwzNC4wNiA5Ljk0LDM1LjQxIDYuMDMsMzAuODkgNi44LDMzLjcxIDIuMTUsMzQuNDQgMCwzNC45OSBaIi8+JiN4YTsmI3hhOzxwYXRoIGlkPSJwYXRoNzkzMjEiIGlua3NjYXBlOmNvbm5lY3Rvci1jdXJ2YXR1cmU9IjAiIHN0eWxlPSJmaWxsOiNiZmRiZTAiIGQ9Im0gNDMuMTcsNTQuNjcgYyAtNS4yNiwtMi40OSAtOC4xNCwtNS44OCAtOS43NSwtOS41OCAtMS45NSwwLjU1IC00LjI5LDAuOTEgLTcuMDIsMS4wNiAtMS4wMywwLjA2IC0yLjExLDAuMDkgLTMuMjQsMC4wOSAtMS4zMSwwIC0yLjY5LC0wLjA0IC00LjEzLC0wLjEyIDQuODIsNC44MiAxMC43NSw4LjUzIDIxLjcyLDguNTkgMC44MSwwLjAxIDEuNjIsLTAuMDEgMi40MiwtMC4wNCB6Ii8+JiN4YTsmI3hhOzxwYXRoIGlkPSJwYXRoNzkzMjkiIGlua3NjYXBlOmNvbm5lY3Rvci1jdXJ2YXR1cmU9IjAiIHN0eWxlPSJmaWxsOiNkNGVkZjEiIGQ9Im0gMzUuMzcsNDguNTEgYyAtMC43MiwtMC45OSAtMS40MywtMi4yMyAtMS45NCwtMy40MiAtMS45NiwwLjU2IC00LjMsMC45MiAtNy4wMywxLjA3IDEuODcsMS4wMiA0LjU1LDEuOTYgOC45NywyLjM1IHoiLz4mI3hhOzwvc3ZnPg==;dashed=1;fontColor=#3333FF;strokeColor=#99CCFF;strokeWidth=2;" vertex="1" parent="DP-uBIAViVgrm5IQE9GF-3">
          <mxGeometry x="488.0000000000001" width="99" height="83" as="geometry" />
        </mxCell>
        <mxCell id="DP-uBIAViVgrm5IQE9GF-15" value="" style="rounded=1;whiteSpace=wrap;html=1;absoluteArcSize=1;arcSize=14;strokeWidth=2;fontColor=#3333FF;strokeColor=#FF9999;fillColor=#FFCCCC;" vertex="1" parent="DP-uBIAViVgrm5IQE9GF-3">
          <mxGeometry x="65" y="50" width="35" height="170" as="geometry" />
        </mxCell>
        <mxCell id="DP-uBIAViVgrm5IQE9GF-17" value="" style="shape=image;verticalLabelPosition=bottom;labelBackgroundColor=#ffffff;verticalAlign=top;aspect=fixed;imageAspect=0;image=data:image/svg+xml,PHN2ZyB4bWxuczpjYz0iaHR0cDovL2NyZWF0aXZlY29tbW9ucy5vcmcvbnMjIiB4bWxuczpkYz0iaHR0cDovL3B1cmwub3JnL2RjL2VsZW1lbnRzLzEuMS8iIHhtbG5zOmlua3NjYXBlPSJodHRwOi8vd3d3Lmlua3NjYXBlLm9yZy9uYW1lc3BhY2VzL2lua3NjYXBlIiB4bWxuczpyZGY9Imh0dHA6Ly93d3cudzMub3JnLzE5OTkvMDIvMjItcmRmLXN5bnRheC1ucyMiIHhtbG5zOnNvZGlwb2RpPSJodHRwOi8vc29kaXBvZGkuc291cmNlZm9yZ2UubmV0L0RURC9zb2RpcG9kaS0wLmR0ZCIgeG1sbnM6c3ZnPSJodHRwOi8vd3d3LnczLm9yZy8yMDAwL3N2ZyIgeG1sbnM9Imh0dHA6Ly93d3cudzMub3JnLzIwMDAvc3ZnIiB4bWxuczp4bGluaz0iaHR0cDovL3d3dy53My5vcmcvMTk5OS94bGluayIgdmVyc2lvbj0iMS4xIiBpZD0ic3ZnMTU0MTMzIiBpbmtzY2FwZTp2ZXJzaW9uPSIwLjkyLjMgKDI0MDU1NDYsIDIwMTgtMDMtMTEpIiBzb2RpcG9kaTpkb2NuYW1lPSJhcGltX2dhdGV3YXlfMS5zdmciIHg9IjBweCIgeT0iMHB4IiB2aWV3Qm94PSIwIDAgNzguODMgNzguODkiIHN0eWxlPSJlbmFibGUtYmFja2dyb3VuZDpuZXcgMCAwIDc4LjgzIDc4Ljg5OyIgeG1sOnNwYWNlPSJwcmVzZXJ2ZSI+JiN4YTs8c29kaXBvZGk6bmFtZWR2aWV3IGJvcmRlcmNvbG9yPSIjNjY2NjY2IiBib3JkZXJvcGFjaXR5PSIxIiBmaXQtbWFyZ2luLWJvdHRvbT0iMCIgZml0LW1hcmdpbi1sZWZ0PSIwIiBmaXQtbWFyZ2luLXJpZ2h0PSIwIiBmaXQtbWFyZ2luLXRvcD0iMCIgZ3JpZHRvbGVyYW5jZT0iMTAiIGd1aWRldG9sZXJhbmNlPSIxMCIgaWQ9Im5hbWVkdmlldzE1NDEzNSIgaW5rc2NhcGU6Y3VycmVudC1sYXllcj0ic3ZnMTU0MTMzIiBpbmtzY2FwZTpjeD0iNTQuMTczMzM0IiBpbmtzY2FwZTpjeT0iNDAuNjQxMjM1IiBpbmtzY2FwZTpwYWdlb3BhY2l0eT0iMCIgaW5rc2NhcGU6cGFnZXNoYWRvdz0iMiIgaW5rc2NhcGU6d2luZG93LWhlaWdodD0iMTAxNyIgaW5rc2NhcGU6d2luZG93LW1heGltaXplZD0iMSIgaW5rc2NhcGU6d2luZG93LXdpZHRoPSIxOTIwIiBpbmtzY2FwZTp3aW5kb3cteD0iLTgiIGlua3NjYXBlOndpbmRvdy15PSItOCIgaW5rc2NhcGU6em9vbT0iNS44MzAzNjYxIiBvYmplY3R0b2xlcmFuY2U9IjEwIiBwYWdlY29sb3I9IiNmZmZmZmYiIHNob3dncmlkPSJmYWxzZSI+JiN4YTsJPC9zb2RpcG9kaTpuYW1lZHZpZXc+JiN4YTs8ZyBpZD0iZzE1NDEzMSIgdHJhbnNmb3JtPSJ0cmFuc2xhdGUoLTAuMDAxMjIxOTMsMC4wMzMyODM0MSkiPiYjeGE7CTx0aXRsZSBpZD0idGl0bGUxNTQxMjQiPlBhZ2UtMTwvdGl0bGU+JiN4YTsJPGcgaWQ9InNoYXBlMzk0MC0xIj4mI3hhOwkJPHRpdGxlIGlkPSJ0aXRsZTE1NDEyNiI+QVBJTSBHYXRld2F5ICMxPC90aXRsZT4mI3hhOwkJPHBhdGggaWQ9InBhdGgxNTQxMjgiIGlua3NjYXBlOmNvbm5lY3Rvci1jdXJ2YXR1cmU9IjAiIHN0eWxlPSJmaWxsOiMzRjU3NjU7IiBkPSJNNzcuOTUsNDMuMDJjLTUuODYtMS44LTUuODYtMS44LTUuODYtMS44ICAgIGMwLjE2LTAuNjksMC4xNi0xLjIzLDAuMTYtMS43NmMwLTAuNzMsMC0xLjI3LTAuMTYtMS44YzUuODYtMS45NSw1Ljg2LTEuOTUsNS44Ni0xLjk1YzAuNTMtMC4xNiwwLjg4LTAuNjksMC44OC0xLjIzICAgIGMtMC4xNi0xLjA3LTAuMzUtMS45NS0wLjUtMi44M2MwLTAuNTQtMC41NC0xLjA4LTEuMDctMS4wOGMtMC4xOSwwLTAuMTksMC0wLjE5LDBjLTYuMDUsMC4yLTYuMDUsMC4yLTYuMDUsMC4yICAgIGMtMC4zNC0xLjI3LTAuNzItMi4zNC0xLjA3LTMuNDFjNC44Mi0zLjUzLDQuODItMy41Myw0LjgyLTMuNTNjMC41LTAuMzgsMC42OS0xLjA3LDAuNS0xLjZjLTAuMzUtMC43My0wLjg4LTEuNjEtMS40Mi0yLjQ5ICAgIGMtMC4xNS0wLjU0LTAuODgtMC43My0xLjQxLTAuNTRjLTUuODYsMS45NS01Ljg2LDEuOTUtNS44NiwxLjk1Yy0wLjUzLTEuMDctMS4yNi0xLjk1LTEuOTUtMi44M2MzLjU2LTQuNzksMy41Ni00Ljc5LDMuNTYtNC43OSAgICBjMC4zNS0wLjUzLDAuMTUtMS4yNi0wLjE5LTEuNjFjLTAuNzMtMC43Mi0xLjQyLTEuNDEtMi4xNC0yLjE0Yy0wLjM1LTAuMzQtMS4wNy0wLjM0LTEuNjEsMGMtNC43OCwzLjU2LTQuNzgsMy41Ni00Ljc4LDMuNTYgICAgYy0wLjg4LTAuNTMtMS44LTEuMjItMi44Ny0xLjc2YzEuOTktNS43MSwxLjk5LTUuNzEsMS45OS01LjcxYzAuMTUtMC42OCwwLTEuMjItMC41NC0xLjZjLTAuOTItMC4zNS0xLjk5LTAuODgtMi44Ny0xLjIzICAgIGMtMC41My0wLjE5LTEuMDcsMC0xLjQxLDAuMzVjLTMuNTYsNC45Ny0zLjU2LDQuOTctMy41Niw0Ljk3Yy0xLjA3LTAuMTktMi4xNC0wLjUzLTMuMDItMC42OWMwLTYuMDUsMC02LjA1LDAtNi4wNSAgICBjMC0wLjcyLTAuNTQtMS4yNi0xLjA4LTEuMjZjLTEuMDctMC4xNS0xLjk1LTAuMzQtMy4wMi0wLjM0Yy0wLjUzLTAuMi0xLjA3LDAuMTktMS4yMiwwLjcyQzM5Ljg4LDYuNiwzOS44OCw2LjYsMzkuODgsNi42ICAgIGMtMC44OCwwLTEuOTUsMC0yLjgzLDAuMTZDMzUuMSwxLjA5LDM1LjEsMS4wOSwzNS4xLDEuMDljLTAuMi0wLjczLTAuNzMtMS4wNy0xLjI3LTAuODhjLTEuMDcsMC4xNS0yLjEsMC4zNC0zLjE3LDAuNTMgICAgYy0wLjU0LDAuMTYtMC45MiwwLjY5LTAuOTIsMS4yM2MwLDYuMiwwLDYuMiwwLDYuMmMtMC44OCwwLjE5LTEuNzYsMC41NC0yLjY0LDAuOTJjLTMuNTYtNC45OC0zLjU2LTQuOTgtMy41Ni00Ljk4ICAgIGMtMC4zOC0wLjM0LTAuOTItMC41My0xLjQxLTAuMzRjLTEuMDgsMC41LTEuOTksMS4wMy0zLjAzLDEuNTdjLTAuMzgsMC4zOC0wLjcyLDAuODgtMC41MywxLjQyYzEuOTUsNS44NSwxLjk1LDUuODUsMS45NSw1Ljg1ICAgIGMtMC43MywwLjU0LTEuNDIsMS4wOC0xLjk1LDEuNjFjLTUuMDEtMy41Ni01LjAxLTMuNTYtNS4wMS0zLjU2Yy0wLjM1LTAuMzQtMS4wNC0wLjM0LTEuNDIsMGMtMC44OCwwLjkyLTEuNjEsMS42MS0yLjQ5LDIuNDkgICAgYy0wLjM0LDAuMzgtMC4zNCwxLjA3LDAsMS42MWMzLjU2LDQuNzksMy41Niw0Ljc5LDMuNTYsNC43OWMtMC4zNCwwLjcyLTAuODgsMS40MS0xLjQxLDIuMTRjLTUuNzEtMS45NS01LjcxLTEuOTUtNS43MS0xLjk1ICAgIGMtMC41My0wLjE5LTEuMDcsMC0xLjQxLDAuNTNjLTAuNTQsMS4wOC0xLjA3LDIuMTUtMS42MSwzLjE4Yy0wLjE5LDAuNTQsMCwxLjA3LDAuNTQsMS40MmM0Ljk3LDMuNTYsNC45NywzLjU2LDQuOTcsMy41NiAgICBjLTAuMzQsMC43My0wLjUzLDEuNDItMC42OSwyLjM0Yy02LjA0LDAtNi4wNCwwLTYuMDQsMGwwLDBjLTAuNzMsMC0xLjI3LDAuMzQtMS4yNywwLjg4Yy0wLjM0LDEuMDctMC41MywyLjI5LTAuNTMsMy4zNyAgICBjLTAuMTksMC42OSwwLjE5LDEuMjIsMC44OCwxLjQxYzUuNywxLjc2LDUuNywxLjc2LDUuNywxLjc2YzAsMC4zOSwwLDAuOTIsMCwxLjI3YzAsMC4zNCwwLDAuNjksMCwxLjA3ICAgIGMtNS43LDEuOTUtNS43LDEuOTUtNS43LDEuOTVjLTAuNjksMC4xNi0xLjA3LDAuNjktMC44OCwxLjIzYzAsMS4wNywwLjE5LDIuMywwLjUzLDMuMzdjMCwwLjczLDAuNTQsMS4wNywxLjI3LDEuMDdsMCwwICAgIGM2LjA0LDAsNi4wNCwwLDYuMDQsMGMwLjE2LDAuNzMsMC4zNSwxLjQyLDAuNjksMi4xNWMtNC45NywzLjUyLTQuOTcsMy41Mi00Ljk3LDMuNTJjLTAuNTQsMC4zOC0wLjczLDEuMDctMC41NCwxLjYxICAgIGMwLjU0LDEuMDcsMS4wNywyLjE0LDEuNjEsMy4wMmMwLjM0LDAuNTQsMC44OCwwLjczLDEuNDEsMC41NGM1LjcxLTEuNzYsNS43MS0xLjc2LDUuNzEtMS43NmMwLjUzLDAuNjksMS4wNywxLjIyLDEuNDEsMS45NSAgICBjLTMuNTYsNC45NC0zLjU2LDQuOTQtMy41Niw0Ljk0Yy0wLjM0LDAuMzgtMC4zNCwxLjA3LDAsMS40NWMwLjg4LDAuODgsMS42MSwxLjc3LDIuNDksMi40OWMwLjM4LDAuMzUsMS4wNywwLjUsMS40MiwwLjE2ICAgIGM1LjAxLTMuNTYsNS4wMS0zLjU2LDUuMDEtMy41NmMwLjUzLDAuNTMsMS4yMiwxLjA3LDEuOTUsMS40NWMtMS45NSw1Ljg2LTEuOTUsNS44Ni0xLjk1LDUuODZjLTAuMTksMC41LDAuMTUsMS4yMiwwLjUzLDEuNDIgICAgYzEuMDQsMC42OSwxLjk1LDEuMjIsMy4wMywxLjU3YzAuNDksMC4zOCwxLjAzLDAuMTksMS40MS0wLjM1YzMuNTYtNC43OSwzLjU2LTQuNzksMy41Ni00Ljc5YzAuODgsMC4zNSwxLjc2LDAuNTQsMi42NCwwLjg5ICAgIGMwLDYuMDUsMCw2LjA1LDAsNi4wNWMwLDAuNjksMC4zOCwxLjA3LDAuOTIsMS4yMmMxLjA3LDAuMzgsMi4xLDAuNTQsMy4xNywwLjU0YzAuNTQsMC4xOSwxLjA3LTAuMTYsMS4yNy0wLjY5ICAgIGMxLjk1LTUuNzEsMS45NS01LjcxLDEuOTUtNS43MWMwLjg4LDAsMS45NSwwLDIuODMsMGMxLjk5LDUuODYsMS45OSw1Ljg2LDEuOTksNS44NmMwLjE1LDAuNTQsMC41LDAuODgsMS4wMywwLjg4aDAuMTkgICAgYzEuMDctMC4xNSwxLjk1LTAuMTUsMy4wMi0wLjM0YzAuNTQtMC4xNiwxLjA4LTAuNjksMS4wOC0xLjIzYzAtNi4wNSwwLTYuMDUsMC02LjA1YzAuODgtMC4xOSwxLjk1LTAuNTMsMy4wMi0wLjg4ICAgIGMzLjU2LDQuOTgsMy41Niw0Ljk4LDMuNTYsNC45OGMwLjM0LDAuNTQsMC44OCwwLjY5LDEuNDEsMC4zNGMwLjg4LTAuMzQsMS45NS0wLjcyLDIuODctMS4yMmMwLjU0LTAuMzgsMC42OS0wLjkyLDAuNTQtMS40NiAgICBjLTEuOTktNS44Ni0xLjk5LTUuODYtMS45OS01Ljg2YzEuMDctMC41MywxLjk5LTEuMDMsMi44Ny0xLjc2YzQuNzgsMy41Niw0Ljc4LDMuNTYsNC43OCwzLjU2YzAuNTQsMC4zNSwxLjI2LDAuMzUsMS42MSwwICAgIGMwLjcyLTAuNzIsMS40MS0xLjI2LDIuMTQtMS45NWMwLjM0LTAuNTQsMC41NC0xLjI2LDAuMTktMS42MWMtMy41Ni00Ljk4LTMuNTYtNC45OC0zLjU2LTQuOThjMC42OS0wLjg4LDEuNDItMS43NiwxLjk1LTIuNjQgICAgYzUuODYsMS45Niw1Ljg2LDEuOTYsNS44NiwxLjk2YzAuNTMsMC4xNSwxLjI2LTAuMiwxLjQxLTAuNzNjMC41NC0wLjg4LDEuMDctMS42MSwxLjQyLTIuNDljMC4xOS0wLjU0LDAtMS4wNy0wLjUtMS40MiAgICBjLTQuODItMy41Ni00LjgyLTMuNTYtNC44Mi0zLjU2YzAuMzUtMS4yMiwwLjczLTIuMywxLjA3LTMuMzdjNi4wNSwwLDYuMDUsMCw2LjA1LDBjMC43MiwwLDEuMjYtMC4zNCwxLjI2LTEuMDcgICAgYzAuMTUtMC44OCwwLjM0LTEuNzYsMC41LTIuNjRDNzguODMsNDMuNzEsNzguNDgsNDMuMTcsNzcuOTUsNDMuMDJMNzcuOTUsNDMuMDJ6IE0yOS4yLDM2Ljk3Yy0wLjE1LDAuNjktMC4xNSwxLjIyLDAuMTksMS43NiAgICBjMC4zNSwwLjU0LDAuODgsMC43MywxLjYxLDAuNzNjNi4yNCwwLDYuMjQsMCw2LjI0LDBDMzAuMjcsNTYuNSwzMC4yNyw1Ni41LDMwLjI3LDU2LjVjLTAuMTUsMC4xOS0wLjUzLDAuODgsMCwxLjQyICAgIGMwLjIsMC4zNCwwLjU0LDAuNzIsMS4wOCwwLjcyYzAuNTMsMCwwLjkxLTAuMzgsMS4yNi0wLjcyYzIzLjExLTI2LjI3LDIzLjExLTI2LjI3LDIzLjExLTI2LjI3YzAuNTMtMC43MywwLjczLTEuMjcsMC4zNC0xLjk2ICAgIGMtMC4xNS0wLjUzLTAuNjktMC45Mi0xLjU3LTAuOTJsMCwwYy03LjY1LDAtNy42NSwwLTcuNjUsMGM1LjY2LTkuNTcsNS42Ni05LjU3LDUuNjYtOS41N2M2Ljc4LDQuNDQsMTEuMDYsMTIuMDYsMTEuMDYsMjAuMjYgICAgYzAsMTMuMTMtMTAuODYsMjMuOTctMjQuMjIsMjMuOTdjLTEzLjE2LDAtMjMuOTktMTAuODQtMjMuOTktMjMuOTdjMC0xMi42NCw5LjYxLTIyLjk0LDIyLjA0LTIzLjk3TDI5LjIsMzYuOTd6Ii8+JiN4YTsJPC9nPiYjeGE7PC9nPiYjeGE7PC9zdmc+;fontColor=#3333FF;strokeColor=#3399FF;strokeWidth=2;fillColor=#FFCCCC;" vertex="1" parent="DP-uBIAViVgrm5IQE9GF-3">
          <mxGeometry x="60" y="221" width="50" height="50" as="geometry" />
        </mxCell>
        <mxCell id="DP-uBIAViVgrm5IQE9GF-20" value="Api GateWays" style="text;html=1;resizable=0;autosize=1;align=center;verticalAlign=middle;points=[];fillColor=none;strokeColor=none;rounded=0;fontColor=#3333FF;fontStyle=1" vertex="1" parent="DP-uBIAViVgrm5IQE9GF-3">
          <mxGeometry x="37.5" y="10" width="100" height="20" as="geometry" />
        </mxCell>
        <mxCell id="DP-uBIAViVgrm5IQE9GF-23" value="" style="rounded=1;whiteSpace=wrap;html=1;fontColor=#CC99FF;strokeWidth=2;strokeColor=#CC99FF;fillColor=#CDA2BE;" vertex="1" parent="DP-uBIAViVgrm5IQE9GF-3">
          <mxGeometry x="164" y="215" width="120" height="60" as="geometry" />
        </mxCell>
        <mxCell id="DP-uBIAViVgrm5IQE9GF-24" value="Web Status&lt;br&gt;HealthChecks" style="text;html=1;resizable=0;autosize=1;align=center;verticalAlign=middle;points=[];fillColor=none;strokeColor=none;rounded=0;fontStyle=1" vertex="1" parent="DP-uBIAViVgrm5IQE9GF-3">
          <mxGeometry x="179" y="230" width="90" height="30" as="geometry" />
        </mxCell>
        <mxCell id="DP-uBIAViVgrm5IQE9GF-25" value="MicroServices" style="text;html=1;resizable=0;autosize=1;align=center;verticalAlign=middle;points=[];fillColor=none;strokeColor=none;rounded=0;fontColor=#000000;fontStyle=1" vertex="1" parent="DP-uBIAViVgrm5IQE9GF-3">
          <mxGeometry x="335" y="10" width="100" height="20" as="geometry" />
        </mxCell>
        <mxCell id="DP-uBIAViVgrm5IQE9GF-26" value="&lt;b&gt;LeaveProcess.Api&lt;/b&gt;" style="rounded=0;whiteSpace=wrap;html=1;fontColor=#000000;strokeWidth=2;fillColor=#99CCFF;strokeColor=#007FFF;" vertex="1" parent="DP-uBIAViVgrm5IQE9GF-3">
          <mxGeometry x="326" y="60" width="120" height="60" as="geometry" />
        </mxCell>
        <mxCell id="DP-uBIAViVgrm5IQE9GF-28" value="" style="shape=image;verticalLabelPosition=bottom;labelBackgroundColor=#ffffff;verticalAlign=top;aspect=fixed;imageAspect=0;image=data:image/svg+xml,PHN2ZyB4bWxuczpjYz0iaHR0cDovL2NyZWF0aXZlY29tbW9ucy5vcmcvbnMjIiB4bWxuczpkYz0iaHR0cDovL3B1cmwub3JnL2RjL2VsZW1lbnRzLzEuMS8iIHhtbG5zOmlua3NjYXBlPSJodHRwOi8vd3d3Lmlua3NjYXBlLm9yZy9uYW1lc3BhY2VzL2lua3NjYXBlIiB4bWxuczpyZGY9Imh0dHA6Ly93d3cudzMub3JnLzE5OTkvMDIvMjItcmRmLXN5bnRheC1ucyMiIHhtbG5zOnNvZGlwb2RpPSJodHRwOi8vc29kaXBvZGkuc291cmNlZm9yZ2UubmV0L0RURC9zb2RpcG9kaS0wLmR0ZCIgeG1sbnM6c3ZnPSJodHRwOi8vd3d3LnczLm9yZy8yMDAwL3N2ZyIgeG1sbnM9Imh0dHA6Ly93d3cudzMub3JnLzIwMDAvc3ZnIiB4bWxuczp4bGluaz0iaHR0cDovL3d3dy53My5vcmcvMTk5OS94bGluayIgdmVyc2lvbj0iMS4xIiBpZD0ic3ZnMTcwNzg2IiBpbmtzY2FwZTp2ZXJzaW9uPSIwLjkyLjMgKDI0MDU1NDYsIDIwMTgtMDMtMTEpIiBzb2RpcG9kaTpkb2NuYW1lPSJkb3RuZXRfY29yZS5zdmciIHg9IjBweCIgeT0iMHB4IiB2aWV3Qm94PSIwIDAgNDggNDgiIHN0eWxlPSJlbmFibGUtYmFja2dyb3VuZDpuZXcgMCAwIDQ4IDQ4OyIgeG1sOnNwYWNlPSJwcmVzZXJ2ZSI+JiN4YTs8c29kaXBvZGk6bmFtZWR2aWV3IGJvcmRlcmNvbG9yPSIjNjY2NjY2IiBib3JkZXJvcGFjaXR5PSIxIiBmaXQtbWFyZ2luLWJvdHRvbT0iMCIgZml0LW1hcmdpbi1sZWZ0PSIwIiBmaXQtbWFyZ2luLXJpZ2h0PSIwIiBmaXQtbWFyZ2luLXRvcD0iMCIgZ3JpZHRvbGVyYW5jZT0iMTAiIGd1aWRldG9sZXJhbmNlPSIxMCIgaWQ9Im5hbWVkdmlldzE3MDc4OCIgaW5rc2NhcGU6Y3VycmVudC1sYXllcj0ic3ZnMTcwNzg2IiBpbmtzY2FwZTpjeD0iMzEuNTU0NjA5IiBpbmtzY2FwZTpjeT0iMzEuNTU0NjA2IiBpbmtzY2FwZTpwYWdlb3BhY2l0eT0iMCIgaW5rc2NhcGU6cGFnZXNoYWRvdz0iMiIgaW5rc2NhcGU6d2luZG93LWhlaWdodD0iMTAxNyIgaW5rc2NhcGU6d2luZG93LW1heGltaXplZD0iMSIgaW5rc2NhcGU6d2luZG93LXdpZHRoPSIxOTIwIiBpbmtzY2FwZTp3aW5kb3cteD0iLTgiIGlua3NjYXBlOndpbmRvdy15PSItOCIgaW5rc2NhcGU6em9vbT0iMTIuOTYxNDQ1IiBvYmplY3R0b2xlcmFuY2U9IjEwIiBwYWdlY29sb3I9IiNmZmZmZmYiIHNob3dncmlkPSJmYWxzZSI+JiN4YTsJPC9zb2RpcG9kaTpuYW1lZHZpZXc+JiN4YTs8Y2lyY2xlIGlkPSJlbGxpcHNlMTcwNzM1IiBzdHlsZT0iZmlsbDojNUMyRDkxOyIgY3g9IjI0IiBjeT0iMjQiIHI9IjI0Ii8+JiN4YTs8cGF0aCBpZD0icGF0aDE3MDc0MCIgaW5rc2NhcGU6Y29ubmVjdG9yLWN1cnZhdHVyZT0iMCIgc3R5bGU9ImZpbGw6I0ZGRkZGRjtmaWxsLW9wYWNpdHk6MC4wOTg7IiBkPSJNNy4zNiw2Ljc1ICBDLTIuNTMsMTUuNTctMy40LDMwLjc0LDUuNDIsNDAuNjRTMjkuNDEsNTEuNCwzOS4zLDQyLjU4YzAuNjktMC42MSwxLjM0LTEuMjYsMS45NS0xLjk1TDcuMzYsNi43NXoiLz4mI3hhOzxwYXRoIGlkPSJwYXRoMTcwNzQ1IiBpbmtzY2FwZTpjb25uZWN0b3ItY3VydmF0dXJlPSIwIiBzdHlsZT0iZmlsbDojRkZGRkZGOyIgZD0iTTUuNTUsMjcuOTRjLTAuMjgsMC0wLjU2LTAuMTEtMC43NS0wLjMyICBjLTAuMi0wLjItMC4zMS0wLjQ3LTAuMzEtMC43NWMwLTAuMjgsMC4xMS0wLjU1LDAuMzEtMC43NUM1LDI1LjkxLDUuMjcsMjUuOCw1LjU1LDI1LjhjMC4yOCwwLDAuNTUsMC4xMSwwLjc1LDAuMzIgIGMwLjIsMC4yLDAuMzEsMC40NywwLjMxLDAuNzVjMCwwLjI4LTAuMTEsMC41NS0wLjMxLDAuNzVDNi4xMSwyNy44Miw1Ljg0LDI3Ljk0LDUuNTUsMjcuOTR6Ii8+JiN4YTs8cGF0aCBpZD0icGF0aDE3MDc1MCIgaW5rc2NhcGU6Y29ubmVjdG9yLWN1cnZhdHVyZT0iMCIgc3R5bGU9ImZpbGw6I0ZGRkZGRjsiIGQ9Ik0yMC40NSwyNy43NWgtMS45N2wtNy4wMi0xMC45MSAgYy0wLjE4LTAuMjctMC4zMi0wLjU1LTAuNDQtMC44NWgtMC4wNmMwLjA3LDAuNjIsMC4wOSwxLjI1LDAuMDgsMS44N3Y5Ljg5aC0xLjZWMTQuMDhoMi4wOGw2Ljg0LDEwLjcxICBjMC4yOCwwLjQ0LDAuNDcsMC43NSwwLjU1LDAuOTFoMC4wNGMtMC4wOC0wLjY3LTAuMTEtMS4zNC0wLjEtMi4wMXYtOS42MWgxLjZWMjcuNzV6Ii8+JiN4YTs8cGF0aCBpZD0icGF0aDE3MDc1NSIgaW5rc2NhcGU6Y29ubmVjdG9yLWN1cnZhdHVyZT0iMCIgc3R5bGU9ImZpbGw6I0ZGRkZGRjsiIGQ9Ik0zMS4yNywyNy43NUgyNFYxNC4wOGg2LjkzdjEuNDRoLTUuM3Y0LjU1aDQuOTQgIHYxLjQ0aC00Ljk0djQuNzRoNS42NEwzMS4yNywyNy43NXoiLz4mI3hhOzxwYXRoIGlkPSJwYXRoMTcwNzYwIiBpbmtzY2FwZTpjb25uZWN0b3ItY3VydmF0dXJlPSIwIiBzdHlsZT0iZmlsbDojRkZGRkZGOyIgZD0iTTQyLDE1LjUyaC0zLjk3djEyLjIzaC0xLjZWMTUuNTJIMzIuNXYtMS40NEg0MiAgVjE1LjUyeiIvPiYjeGE7PHBhdGggaWQ9InBhdGgxNzA3NjUiIGlua3NjYXBlOmNvbm5lY3Rvci1jdXJ2YXR1cmU9IjAiIHN0eWxlPSJmaWxsOiNGMkYyRjI7IiBkPSJNMTkuNTksMzcuMDVjLTAuNTQsMC4yNi0xLjE0LDAuMzktMS43NCwwLjM3ICBjLTAuODEsMC4wNC0xLjU5LTAuMjgtMi4xNS0wLjg2Yy0wLjU1LTAuNjItMC44NC0xLjQyLTAuODEtMi4yNWMtMC4wNC0wLjkxLDAuMjktMS43OSwwLjkxLTIuNDVjMC42MS0wLjYyLDEuNDQtMC45NiwyLjMxLTAuOTMgIGMwLjUxLTAuMDIsMS4wMiwwLjA3LDEuNSwwLjI2djAuNzVjLTAuNDYtMC4yNS0wLjk4LTAuMzgtMS41LTAuMzdjLTAuNjctMC4wMi0xLjMyLDAuMjUtMS43NywwLjc1Yy0wLjQ2LDAuNTMtMC43LDEuMjItMC42NywxLjkzICBjLTAuMDQsMC42NywwLjE5LDEuMzMsMC42MywxLjg0YzAuNDMsMC40NiwxLjAzLDAuNzEsMS42NiwwLjY4YzAuNTgsMC4wMSwxLjE0LTAuMTMsMS42NC0wLjQyTDE5LjU5LDM3LjA1eiIvPiYjeGE7PHBhdGggaWQ9InBhdGgxNzA3NzAiIGlua3NjYXBlOmNvbm5lY3Rvci1jdXJ2YXR1cmU9IjAiIHN0eWxlPSJmaWxsOiNGMkYyRjI7IiBkPSJNMjIuNjYsMzcuNDJjLTAuNjEsMC4wMi0xLjE5LTAuMjItMS42LTAuNjcgIGMtMC40MS0wLjQ2LTAuNjItMS4wNi0wLjU5LTEuNjdjLTAuMDQtMC42NSwwLjE4LTEuMjksMC42Mi0xLjc3YzAuNDQtMC40MywxLjA1LTAuNjcsMS42Ny0wLjY0YzAuNTktMC4wMywxLjE2LDAuMTksMS41NywwLjYyICBjMC40LDAuNDgsMC42LDEuMSwwLjU2LDEuNzJjMC4wMywwLjYzLTAuMTgsMS4yNS0wLjYsMS43M0MyMy44NywzNy4xOSwyMy4yNywzNy40NCwyMi42NiwzNy40MnogTTIyLjcxLDMzLjMyICBjLTAuNDItMC4wMi0wLjgyLDAuMTYtMS4wOSwwLjQ3Yy0wLjI5LDAuMzctMC40MywwLjgzLTAuNDEsMS4zYy0wLjAyLDAuNDYsMC4xMiwwLjkxLDAuNDEsMS4yNmMwLjI3LDAuMzEsMC42NywwLjQ4LDEuMDksMC40NyAgYzAuNDEsMC4wMiwwLjgtMC4xNCwxLjA3LTAuNDVjMC4yNy0wLjM3LDAuNDEtMC44MywwLjM4LTEuMjljMC4wMy0wLjQ2LTAuMTEtMC45Mi0wLjM4LTEuM0MyMy41MSwzMy40NywyMy4xMiwzMy4zLDIyLjcxLDMzLjMyeiIvPiYjeGE7PHBhdGggaWQ9InBhdGgxNzA3NzUiIGlua3NjYXBlOmNvbm5lY3Rvci1jdXJ2YXR1cmU9IjAiIHN0eWxlPSJmaWxsOiNGMkYyRjI7IiBkPSJNMjguMzksMzMuNTRjLTAuMTYtMC4xMS0wLjM1LTAuMTYtMC41NS0wLjE0ICBjLTAuMzEsMC4wMS0wLjU5LDAuMTctMC43NSwwLjQ0Yy0wLjIyLDAuMzUtMC4zMywwLjc2LTAuMywxLjE4djIuM2gtMC43NXYtNC41aDAuNzV2MC45NGMwLjA4LTAuMjksMC4yNC0wLjU1LDAuNDctMC43NSAgYzAuMi0wLjE3LDAuNDUtMC4yNywwLjcxLTAuMjdjMC4xNC0wLjAxLDAuMjgsMC4wMSwwLjQyLDAuMDZMMjguMzksMzMuNTR6Ii8+JiN4YTs8cGF0aCBpZD0icGF0aDE3MDc4MCIgaW5rc2NhcGU6Y29ubmVjdG9yLWN1cnZhdHVyZT0iMCIgc3R5bGU9ImZpbGw6I0YyRjJGMjsiIGQ9Ik0zMi43OCwzNS4yNWgtMy4xNyAgYy0wLjAyLDAuNDIsMC4xMSwwLjgzLDAuMzgsMS4xNWMwLjI4LDAuMjgsMC42NywwLjQzLDEuMDcsMC40MWMwLjUxLTAuMDEsMS0wLjE4LDEuMzktMC41djAuNjdjLTAuNDYsMC4zLTEuMDEsMC40Ni0xLjU2LDAuNDMgIGMtMC41NywwLjAzLTEuMTItMC4yLTEuNS0wLjYyYy0wLjM5LTAuNDktMC41OS0xLjEtMC41NS0xLjcyYy0wLjAzLTAuNjIsMC4xOC0xLjI0LDAuNTktMS43MWMwLjM4LTAuNDMsMC45My0wLjY4LDEuNS0wLjY2ICBjMC41Mi0wLjAzLDEuMDMsMC4xOCwxLjM3LDAuNTdjMC4zNSwwLjQ2LDAuNTIsMS4wMiwwLjQ4LDEuNTlWMzUuMjV6IE0zMi4wMywzNC42NGMwLjAyLTAuMzUtMC4wOS0wLjY5LTAuMy0wLjk3ICBjLTAuMjEtMC4yMy0wLjUxLTAuMzYtMC44Mi0wLjM0Yy0wLjMzLDAtMC42NCwwLjEzLTAuODYsMC4zN2MtMC4yNSwwLjI2LTAuNDEsMC41OS0wLjQ1LDAuOTVMMzIuMDMsMzQuNjR6Ii8+JiN4YTs8L3N2Zz4=;fontColor=#000000;strokeColor=#007FFF;strokeWidth=2;fillColor=#99CCFF;" vertex="1" parent="DP-uBIAViVgrm5IQE9GF-3">
          <mxGeometry x="401" y="100" width="48" height="48" as="geometry" />
        </mxCell>
        <mxCell id="DP-uBIAViVgrm5IQE9GF-32" value="" style="endArrow=classic;html=1;fontColor=#000000;entryX=0;entryY=0.75;entryDx=0;entryDy=0;exitX=1;exitY=0.5;exitDx=0;exitDy=0;" edge="1" parent="DP-uBIAViVgrm5IQE9GF-3" source="DP-uBIAViVgrm5IQE9GF-15" target="DP-uBIAViVgrm5IQE9GF-26">
          <mxGeometry relative="1" as="geometry">
            <mxPoint x="170" y="190" as="sourcePoint" />
            <mxPoint x="270" y="190" as="targetPoint" />
            <Array as="points">
              <mxPoint x="240" y="130" />
            </Array>
          </mxGeometry>
        </mxCell>
        <mxCell id="DP-uBIAViVgrm5IQE9GF-33" value="Label" style="edgeLabel;resizable=0;html=1;align=center;verticalAlign=middle;" connectable="0" vertex="1" parent="DP-uBIAViVgrm5IQE9GF-32">
          <mxGeometry relative="1" as="geometry" />
        </mxCell>
        <mxCell id="DP-uBIAViVgrm5IQE9GF-5" value="" style="swimlane;startSize=0;dashed=1;strokeColor=#3399FF;" vertex="1" parent="1">
          <mxGeometry x="30" y="240" width="110" height="300" as="geometry" />
        </mxCell>
        <mxCell id="DP-uBIAViVgrm5IQE9GF-9" value="" style="shape=image;verticalLabelPosition=bottom;labelBackgroundColor=#ffffff;verticalAlign=top;aspect=fixed;imageAspect=0;image=data:image/svg+xml,PHN2ZyB4bWxuczpjYz0iaHR0cDovL2NyZWF0aXZlY29tbW9ucy5vcmcvbnMjIiB4bWxuczpkYz0iaHR0cDovL3B1cmwub3JnL2RjL2VsZW1lbnRzLzEuMS8iIHhtbG5zOmlua3NjYXBlPSJodHRwOi8vd3d3Lmlua3NjYXBlLm9yZy9uYW1lc3BhY2VzL2lua3NjYXBlIiB4bWxuczpyZGY9Imh0dHA6Ly93d3cudzMub3JnLzE5OTkvMDIvMjItcmRmLXN5bnRheC1ucyMiIHhtbG5zOnNvZGlwb2RpPSJodHRwOi8vc29kaXBvZGkuc291cmNlZm9yZ2UubmV0L0RURC9zb2RpcG9kaS0wLmR0ZCIgeG1sbnM6c3ZnPSJodHRwOi8vd3d3LnczLm9yZy8yMDAwL3N2ZyIgeG1sbnM9Imh0dHA6Ly93d3cudzMub3JnLzIwMDAvc3ZnIiB4bWxuczp4bGluaz0iaHR0cDovL3d3dy53My5vcmcvMTk5OS94bGluayIgdmVyc2lvbj0iMS4xIiBpZD0ic3ZnMTEzNDIyIiBpbmtzY2FwZTp2ZXJzaW9uPSIwLjkyLjMgKDI0MDU1NDYsIDIwMTgtMDMtMTEpIiBzb2RpcG9kaTpkb2NuYW1lPSJ3ZWIuc3ZnIiB4PSIwcHgiIHk9IjBweCIgdmlld0JveD0iMCAwIDM2IDM2IiBzdHlsZT0iZW5hYmxlLWJhY2tncm91bmQ6bmV3IDAgMCAzNiAzNjsiIHhtbDpzcGFjZT0icHJlc2VydmUiPiYjeGE7PHNvZGlwb2RpOm5hbWVkdmlldyBib3JkZXJjb2xvcj0iIzY2NjY2NiIgYm9yZGVyb3BhY2l0eT0iMSIgZml0LW1hcmdpbi1ib3R0b209IjAiIGZpdC1tYXJnaW4tbGVmdD0iMCIgZml0LW1hcmdpbi1yaWdodD0iMCIgZml0LW1hcmdpbi10b3A9IjAiIGdyaWR0b2xlcmFuY2U9IjEwIiBndWlkZXRvbGVyYW5jZT0iMTAiIGlkPSJuYW1lZHZpZXcxMTM0MjQiIGlua3NjYXBlOmN1cnJlbnQtbGF5ZXI9InN2ZzExMzQyMiIgaW5rc2NhcGU6Y3g9IjIzLjYwNDk5IiBpbmtzY2FwZTpjeT0iMjMuOTk5OTc1IiBpbmtzY2FwZTpwYWdlb3BhY2l0eT0iMCIgaW5rc2NhcGU6cGFnZXNoYWRvdz0iMiIgaW5rc2NhcGU6d2luZG93LWhlaWdodD0iMTAxNyIgaW5rc2NhcGU6d2luZG93LW1heGltaXplZD0iMSIgaW5rc2NhcGU6d2luZG93LXdpZHRoPSIxOTIwIiBpbmtzY2FwZTp3aW5kb3cteD0iLTgiIGlua3NjYXBlOndpbmRvdy15PSItOCIgaW5rc2NhcGU6em9vbT0iMTcuMzQwMDExIiBvYmplY3R0b2xlcmFuY2U9IjEwIiBwYWdlY29sb3I9IiNmZmZmZmYiIHNob3dncmlkPSJmYWxzZSI+JiN4YTsJPC9zb2RpcG9kaTpuYW1lZHZpZXc+JiN4YTs8ZyBpZD0iZzExMzQyMCIgdHJhbnNmb3JtPSJ0cmFuc2xhdGUoLTEuMzQyNDksLTAuNzQ3OTIpIj4mI3hhOwk8dGl0bGUgaWQ9InRpdGxlMTEzMzczIj5QYWdlLTE8L3RpdGxlPiYjeGE7CTxnIGlkPSJncm91cDUyNDAtMSIgdHJhbnNmb3JtPSJ0cmFuc2xhdGUoMS41LC0wLjc1KSI+JiN4YTsJCTx0aXRsZSBpZD0idGl0bGUxMTMzNzUiPldlYjwvdGl0bGU+JiN4YTsJCTxnIGlkPSJzaGFwZTUyNDEtMiIgdHJhbnNmb3JtPSJ0cmFuc2xhdGUoNS4zNzk3NCwtNS41MzcyNCkiPiYjeGE7CQkJPHRpdGxlIGlkPSJ0aXRsZTExMzM3NyI+cGF0aDk2MTA8L3RpdGxlPiYjeGE7CQkJPHBhdGggaWQ9InBhdGgxMTMzNzkiIGlua3NjYXBlOmNvbm5lY3Rvci1jdXJ2YXR1cmU9IjAiIHN0eWxlPSJmaWxsOiNGRkZGRkY7IiBkPSJNMzAuMDksMjUuMDRjMCw5LjczLTcuOSwxNy42Mi0xNy42MywxNy42MiAgICAgYy05LjczLDAtMTcuNjItNy45LTE3LjYyLTE3LjYzYzAtOS43Myw3Ljg5LTE3LjYyLDE3LjYyLTE3LjYyQzIyLjE5LDcuNDIsMzAuMDgsMTUuMzEsMzAuMDksMjUuMDR6Ii8+JiN4YTsJCTwvZz4mI3hhOwkJPGcgaWQ9InNoYXBlNTI0Mi00IiB0cmFuc2Zvcm09InRyYW5zbGF0ZSgwLjIxNzQ5MiwtMC4zNzUpIj4mI3hhOwkJCTx0aXRsZSBpZD0idGl0bGUxMTMzODIiPnBhdGg5NjEyPC90aXRsZT4mI3hhOwkJCTxwYXRoIGlkPSJwYXRoMTEzMzg0IiBpbmtzY2FwZTpjb25uZWN0b3ItY3VydmF0dXJlPSIwIiBzdHlsZT0iZmlsbDojRDRFMkY1OyIgZD0iTTM1LjI1LDE5Ljg3YzAsOS43My03Ljg5LDE3LjYzLTE3LjYzLDE3LjYzICAgICBTMCwyOS42LDAsMTkuODdsMCwwSDM1LjI1eiIvPiYjeGE7CQk8L2c+JiN4YTsJCTxnIGlkPSJzaGFwZTUyNDMtNiIgdHJhbnNmb3JtPSJ0cmFuc2xhdGUoMS4zNDI0OSwtNS4yNzIwOCkiPiYjeGE7CQkJPHRpdGxlIGlkPSJ0aXRsZTExMzM4NyI+cGF0aDk2MTQ8L3RpdGxlPiYjeGE7CQkJPHBhdGggaWQ9InBhdGgxMTMzODkiIGlua3NjYXBlOmNvbm5lY3Rvci1jdXJ2YXR1cmU9IjAiIHN0eWxlPSJmaWxsOiM0RDRFNEU7IiBkPSJNMTYuNSw4LjI3YzkuMTEsMCwxNi41LDcuMzksMTYuNSwxNi41ICAgICBzLTcuMzksMTYuNS0xNi41LDE2LjVTMCwzMy44OCwwLDI0Ljc3UzcuMzksOC4yNywxNi41LDguMjd6IE0xNi41LDYuNzdjLTkuOTQsMC0xOCw4LjA2LTE4LDE4czguMDYsMTgsMTgsMThzMTgtOC4wNiwxOC0xOCAgICAgUzI2LjQ0LDYuNzcsMTYuNSw2Ljc3eiIvPiYjeGE7CQk8L2c+JiN4YTsJCTxnIGlkPSJncm91cDUyNDQtOCI+JiN4YTsJCQk8dGl0bGUgaWQ9InRpdGxlMTEzMzkyIj5nOTYyMDwvdGl0bGU+JiN4YTsJCQk8ZyBpZD0ic2hhcGU1MjQ1LTkiIHRyYW5zZm9ybT0idHJhbnNsYXRlKDkuNTkyNDkpIj4mI3hhOwkJCQk8dGl0bGUgaWQ9InRpdGxlMTEzMzk0Ij5wYXRoOTYxNjwvdGl0bGU+JiN4YTsJCQkJPHBhdGggaWQ9InBhdGgxMTMzOTYiIGlua3NjYXBlOmNvbm5lY3Rvci1jdXJ2YXR1cmU9IjAiIHN0eWxlPSJmaWxsOiM0RDRFNEU7IiBkPSJNNy44NywzLjJjMywwLDYuMzgsNy4wMSw2LjM4LDE2LjQgICAgICBjMCw5LjM4LTMuMzgsMTYuNC02LjM4LDE2LjRTMS41LDI4Ljk5LDEuNSwxOS42QzEuNSwxMC4yMiw0Ljg3LDMuMiw3Ljg3LDMuMnogTTcuODcsMS43QzMuNTIsMS43LDAsOS43MSwwLDE5LjYgICAgICBjMCw5Ljg4LDMuNTIsMTcuOSw3Ljg3LDE3LjlzNy44OC04LjAxLDcuODgtMTcuOUMxNS43NSw5LjcyLDEyLjIyLDEuNyw3Ljg3LDEuN3oiLz4mI3hhOwkJCTwvZz4mI3hhOwkJCTxnIGlkPSJzaGFwZTUyNDYtMTEiIHRyYW5zZm9ybT0idHJhbnNsYXRlKDAsLTE4KSI+JiN4YTsJCQkJPHRpdGxlIGlkPSJ0aXRsZTExMzM5OSI+bGluZTk2MTg8L3RpdGxlPiYjeGE7CQkJCSYjeGE7CQkJCQk8cGF0aCBpZD0icGF0aDExMzQwMSIgaW5rc2NhcGU6Y29ubmVjdG9yLWN1cnZhdHVyZT0iMCIgc3R5bGU9ImZpbGw6bm9uZTtzdHJva2U6IzRENEU0RTtzdHJva2Utd2lkdGg6MS41O3N0cm9rZS1taXRlcmxpbWl0OjM7IiBkPSIgICAgICBNMCwzNy41aDM1LjA5Ii8+JiN4YTsJCQk8L2c+JiN4YTsJCTwvZz4mI3hhOwkJPGcgaWQ9InNoYXBlNTI0Ny0xNCIgdHJhbnNmb3JtPSJ0cmFuc2xhdGUoNC4zNDk5OSwtMjcpIj4mI3hhOwkJCTx0aXRsZSBpZD0idGl0bGUxMTM0MDUiPnBhdGg5NjIyPC90aXRsZT4mI3hhOwkJCTxwYXRoIGlkPSJwYXRoMTEzNDA3IiBpbmtzY2FwZTpjb25uZWN0b3ItY3VydmF0dXJlPSIwIiBzdHlsZT0iZmlsbDpub25lOyIgZD0iTTAsMzUuNDdjMy4yOSwxLjI4LDguMTIsMi4wMywxMy40OSwyLjAzICAgICBzMTAuMi0wLjc1LDEzLjUtMi4wM0gweiIvPiYjeGE7CQkJJiN4YTsJCQkJPHBhdGggaWQ9InBhdGgxMTM0MDkiIGlua3NjYXBlOmNvbm5lY3Rvci1jdXJ2YXR1cmU9IjAiIHN0eWxlPSJmaWxsOm5vbmU7c3Ryb2tlOiM0RDRFNEU7c3Ryb2tlLXdpZHRoOjEuNTtzdHJva2UtbWl0ZXJsaW1pdDozOyIgZD0iICAgICBNMCwzNS40N2MzLjI5LDEuMjgsOC4xMiwyLjAzLDEzLjQ5LDIuMDNzMTAuMi0wLjc1LDEzLjUtMi4wMyIvPiYjeGE7CQk8L2c+JiN4YTsJCTxnIGlkPSJzaGFwZTUyNDgtMTciIHRyYW5zZm9ybT0idHJhbnNsYXRlKDQuMzQ5OTksLTYuOTY3NSkiPiYjeGE7CQkJPHRpdGxlIGlkPSJ0aXRsZTExMzQxMiI+cGF0aDk2MjQ8L3RpdGxlPiYjeGE7CQkJPHBhdGggaWQ9InBhdGgxMTM0MTQiIGlua3NjYXBlOmNvbm5lY3Rvci1jdXJ2YXR1cmU9IjAiIHN0eWxlPSJmaWxsOm5vbmU7IiBkPSJNMCwzNy41YzMuMjktMS4yOCw4LjEyLTIuMDMsMTMuNDktMi4wMyAgICAgczEwLjIsMC43NSwxMy41LDIuMDNIMHoiLz4mI3hhOwkJCSYjeGE7CQkJCTxwYXRoIGlkPSJwYXRoMTEzNDE2IiBpbmtzY2FwZTpjb25uZWN0b3ItY3VydmF0dXJlPSIwIiBzdHlsZT0iZmlsbDpub25lO3N0cm9rZTojNEQ0RTRFO3N0cm9rZS13aWR0aDoxLjU7c3Ryb2tlLW1pdGVybGltaXQ6MzsiIGQ9IiAgICAgTTAsMzcuNWMzLjI5LTEuMjgsOC4xMi0yLjAzLDEzLjQ5LTIuMDNzMTAuMiwwLjc1LDEzLjUsMi4wMyIvPiYjeGE7CQk8L2c+JiN4YTsJPC9nPiYjeGE7PC9nPiYjeGE7PC9zdmc+;dashed=1;dashPattern=1 2;" vertex="1" parent="DP-uBIAViVgrm5IQE9GF-5">
          <mxGeometry x="32" y="250" width="36" height="36" as="geometry" />
        </mxCell>
        <mxCell id="DP-uBIAViVgrm5IQE9GF-10" value="" style="shape=image;verticalLabelPosition=bottom;labelBackgroundColor=#ffffff;verticalAlign=top;aspect=fixed;imageAspect=0;image=data:image/svg+xml,PHN2ZyB4bWxuczpjYz0iaHR0cDovL2NyZWF0aXZlY29tbW9ucy5vcmcvbnMjIiB4bWxuczpkYz0iaHR0cDovL3B1cmwub3JnL2RjL2VsZW1lbnRzLzEuMS8iIHhtbG5zOmlua3NjYXBlPSJodHRwOi8vd3d3Lmlua3NjYXBlLm9yZy9uYW1lc3BhY2VzL2lua3NjYXBlIiB4bWxuczpyZGY9Imh0dHA6Ly93d3cudzMub3JnLzE5OTkvMDIvMjItcmRmLXN5bnRheC1ucyMiIHhtbG5zOnNvZGlwb2RpPSJodHRwOi8vc29kaXBvZGkuc291cmNlZm9yZ2UubmV0L0RURC9zb2RpcG9kaS0wLmR0ZCIgeG1sbnM6c3ZnPSJodHRwOi8vd3d3LnczLm9yZy8yMDAwL3N2ZyIgeG1sbnM9Imh0dHA6Ly93d3cudzMub3JnLzIwMDAvc3ZnIiB4bWxuczp4bGluaz0iaHR0cDovL3d3dy53My5vcmcvMTk5OS94bGluayIgdmVyc2lvbj0iMS4xIiBpZD0ic3ZnMTE0MjUwIiBpbmtzY2FwZTp2ZXJzaW9uPSIwLjkyLjMgKDI0MDU1NDYsIDIwMTgtMDMtMTEpIiBzb2RpcG9kaTpkb2NuYW1lPSJ3ZWJwYWdlXzEuc3ZnIiB4PSIwcHgiIHk9IjBweCIgdmlld0JveD0iMCAwIDYxLjQ2IDQ1IiBzdHlsZT0iZW5hYmxlLWJhY2tncm91bmQ6bmV3IDAgMCA2MS40NiA0NTsiIHhtbDpzcGFjZT0icHJlc2VydmUiPiYjeGE7PHNvZGlwb2RpOm5hbWVkdmlldyBib3JkZXJjb2xvcj0iIzY2NjY2NiIgYm9yZGVyb3BhY2l0eT0iMSIgZml0LW1hcmdpbi1ib3R0b209IjAiIGZpdC1tYXJnaW4tbGVmdD0iMCIgZml0LW1hcmdpbi1yaWdodD0iMCIgZml0LW1hcmdpbi10b3A9IjAiIGdyaWR0b2xlcmFuY2U9IjEwIiBndWlkZXRvbGVyYW5jZT0iMTAiIGlkPSJuYW1lZHZpZXcxMTQyNTIiIGlua3NjYXBlOmN1cnJlbnQtbGF5ZXI9InN2ZzExNDI1MCIgaW5rc2NhcGU6Y3g9IjQwLjk3MDU5MiIgaW5rc2NhcGU6Y3k9IjI5Ljk5OTk5NSIgaW5rc2NhcGU6cGFnZW9wYWNpdHk9IjAiIGlua3NjYXBlOnBhZ2VzaGFkb3c9IjIiIGlua3NjYXBlOndpbmRvdy1oZWlnaHQ9IjEwMTciIGlua3NjYXBlOndpbmRvdy1tYXhpbWl6ZWQ9IjEiIGlua3NjYXBlOndpbmRvdy13aWR0aD0iMTkyMCIgaW5rc2NhcGU6d2luZG93LXg9Ii04IiBpbmtzY2FwZTp3aW5kb3cteT0iLTgiIGlua3NjYXBlOnpvb209IjE0LjQ1IiBvYmplY3R0b2xlcmFuY2U9IjEwIiBwYWdlY29sb3I9IiNmZmZmZmYiIHNob3dncmlkPSJmYWxzZSI+JiN4YTsJPC9zb2RpcG9kaTpuYW1lZHZpZXc+JiN4YTs8ZyBpZD0iZzExNDI0OCI+JiN4YTsJPHRpdGxlIGlkPSJ0aXRsZTExNDE1OSI+UGFnZS0xPC90aXRsZT4mI3hhOwk8ZyBpZD0iZ3JvdXA1NDk2LTEiPiYjeGE7CQk8dGl0bGUgaWQ9InRpdGxlMTE0MTYxIj5XZWJwYWdlICMxPC90aXRsZT4mI3hhOwkJPGcgaWQ9Imdyb3VwNTQ5Ny0yIj4mI3hhOwkJCTx0aXRsZSBpZD0idGl0bGUxMTQxNjMiPk1hbmFnZW1lbnQgUm9sZXMvUGVybWlzc2lvbnMuNzQ1MzwvdGl0bGU+JiN4YTsJCQk8ZyBpZD0iZ3JvdXA1NDk4LTMiPiYjeGE7CQkJCTx0aXRsZSBpZD0idGl0bGUxMTQxNjUiPldlYnNpdGVzICMyPC90aXRsZT4mI3hhOwkJCQk8ZyBpZD0ic2hhcGU1NDk5LTQiPiYjeGE7CQkJCQk8dGl0bGUgaWQ9InRpdGxlMTE0MTY3Ij5TaGVldC41NDk5PC90aXRsZT4mI3hhOwkJCQkJPHBhdGggaWQ9InBhdGgxMTQxNjkiIGlua3NjYXBlOmNvbm5lY3Rvci1jdXJ2YXR1cmU9IjAiIHN0eWxlPSJmaWxsOiMzRjU3NjU7IiBkPSJNNTkuMTEsMEMyLjI3LDAsMi4yNywwLDIuMjcsMCAgICAgICBDMC4zOCwwLDAsMC40NSwwLDIuMzRjMCw0MC4zOSwwLDQwLjM5LDAsNDAuMzlDMCw0NC42MiwwLjM4LDQ1LDIuMjcsNDVjNTYuODQsMCw1Ni44NCwwLDU2Ljg0LDBjMS45NywwLDIuMzUtMC4zOCwyLjM1LTIuMjcgICAgICAgYzAtNDAuMzksMC00MC4zOSwwLTQwLjM5QzYxLjQ2LDAuNDUsNjEuMDgsMCw1OS4xMSwweiIvPiYjeGE7CQkJCTwvZz4mI3hhOwkJCQk8ZyBpZD0ic2hhcGU1NTAwLTYiIHRyYW5zZm9ybT0idHJhbnNsYXRlKDEuNTg3NDIsLTM3Ljc1MTcpIj4mI3hhOwkJCQkJPHRpdGxlIGlkPSJ0aXRsZTExNDE3MiI+U2hlZXQuNTUwMDwvdGl0bGU+JiN4YTsJCQkJCTxwYXRoIGlkPSJwYXRoMTE0MTc0IiBpbmtzY2FwZTpjb25uZWN0b3ItY3VydmF0dXJlPSIwIiBzdHlsZT0iZmlsbDojMjZBOUUwOyIgZD0iTTYuMTIsNDEuOThDNi4xMiw0My43Miw0Ljc2LDQ1LDMuMSw0NSAgICAgICBTMCw0My43MiwwLDQxLjk4YzAtMS42NiwxLjQ0LTMuMDIsMy4xLTMuMDJTNi4xMiw0MC4zMiw2LjEyLDQxLjk4eiIvPiYjeGE7CQkJCTwvZz4mI3hhOwkJCQk8ZyBpZD0ic2hhcGU1NTAxLTgiIHRyYW5zZm9ybT0idHJhbnNsYXRlKDIuODcyNDgsLTM5LjQxMjgpIj4mI3hhOwkJCQkJPHRpdGxlIGlkPSJ0aXRsZTExNDE3NyI+U2hlZXQuNTUwMTwvdGl0bGU+JiN4YTsJCQkJCTxwYXRoIGlkPSJwYXRoMTE0MTc5IiBpbmtzY2FwZTpjb25uZWN0b3ItY3VydmF0dXJlPSIwIiBzdHlsZT0iZmlsbDojRkZGRkZGOyIgZD0iTTEuMjEsNDMuMzRsMS4wNi0wLjk4SDEuNDRMMCw0My42NEwxLjQ0LDQ1ICAgICAgIGgwLjgzbC0xLjA2LTEuMDZoMi40MnYtMC42SDEuMjF6Ii8+JiN4YTsJCQkJPC9nPiYjeGE7CQkJCTxnIGlkPSJzaGFwZTU1MDItMTAiIHRyYW5zZm9ybT0idHJhbnNsYXRlKDguODQ0MjEsLTM5LjQxMjgpIj4mI3hhOwkJCQkJPHRpdGxlIGlkPSJ0aXRsZTExNDE4MiI+U2hlZXQuNTUwMjwvdGl0bGU+JiN4YTsJCQkJCTxwYXRoIGlkPSJwYXRoMTE0MTg0IiBpbmtzY2FwZTpjb25uZWN0b3ItY3VydmF0dXJlPSIwIiBzdHlsZT0iZmlsbDojRkZGRkZGOyIgZD0iTTAsNDIuMTNWNDVoNTEuMTh2LTIuODdIMHoiLz4mI3hhOwkJCQk8L2c+JiN4YTsJCQkJPGcgaWQ9InNoYXBlNTUwMy0xMiIgdHJhbnNmb3JtPSJ0cmFuc2xhdGUoMTUuNzk4NiwtMTMuMTM3NikiPiYjeGE7CQkJCQk8dGl0bGUgaWQ9InRpdGxlMTE0MTg3Ij5TaGVldC41NTAzPC90aXRsZT4mI3hhOwkJCQkJPHBhdGggaWQ9InBhdGgxMTQxODkiIGlua3NjYXBlOmNvbm5lY3Rvci1jdXJ2YXR1cmU9IjAiIHN0eWxlPSJmaWxsOiNGRkZGRkY7IiBkPSJNMjguOCwzOC40M2MwLTEuNTEtMS4yMS0yLjc5LTIuOC0yLjc5ICAgICAgIGMtNC4yMywwLTQuMjMsMC00LjIzLDBjLTMuNy0zLjYzLTMuNy0zLjYzLTMuNy0zLjYzYy05LjA3LDAtOS4wNywwLTkuMDcsMGMtMy44NiwzLjctMy44NiwzLjctMy44NiwzLjcgICAgICAgYy0yLjM0LDAuMjMtNC4yMywyLjE5LTQuMjMsNC42MWMwLDAuOSwwLDAuOSwwLDAuOWMtMC45MSwwLTAuOTEsMC0wLjkxLDBjMCwxLjgyLDAsMS44MiwwLDEuODJjMy45MywwLDMuOTMsMCwzLjkzLDAgICAgICAgQzQuMzEsNDQuMTcsNS4zNyw0NSw2LjU4LDQ1czIuMTktMC44MywyLjU3LTEuOTZjMTEuNDksMCwxMS40OSwwLDExLjQ5LDBjMC40NSwxLjEzLDEuNDMsMS45NiwyLjY0LDEuOTZzMi4xOS0wLjgzLDIuNjUtMS45NiAgICAgICBjMy43OCwwLDMuNzgsMCwzLjc4LDBjMC0xLjgyLDAtMS44MiwwLTEuODJjLTAuOTEsMC0wLjkxLDAtMC45MSwwVjM4LjQzeiBNMjYuOTksMzguNDNjMCwyLjc5LDAsMi43OSwwLDIuNzkgICAgICAgYy0xLjA2LDAtMS4wNiwwLTEuMDYsMGMtMC40Ni0xLjA1LTEuNDQtMS44OC0yLjY1LTEuODhjLTEuMjEsMC0yLjE5LDAuODMtMi42NCwxLjg4Yy03LjY0LDAtNy42NCwwLTcuNjQsMCAgICAgICBjMC0zLjY5LDAtMy42OSwwLTMuNjljMTMsMCwxMywwLDEzLDBDMjYuNjEsMzcuNTMsMjYuOTksMzcuOSwyNi45OSwzOC40M3ogTTE5LjEyLDM1LjY0Yy02LjEyLDAtNi4xMiwwLTYuMTIsMCAgICAgICBjMC0xLjgxLDAtMS44MSwwLTEuODFjNC4zMSwwLDQuMzEsMCw0LjMxLDBMMTkuMTIsMzUuNjR6IE05LjY4LDMzLjgzYzEuNTEsMCwxLjUxLDAsMS41MSwwYzAsMS44MSwwLDEuODEsMCwxLjgxICAgICAgIGMtMy4zMywwLTMuMzMsMC0zLjMzLDBMOS42OCwzMy44M3ogTTIuOCw0MC4zMmMwLTEuNTksMS4yMS0yLjc5LDIuODctMi43OWM1LjUyLDAsNS41MiwwLDUuNTIsMGMwLDMuNjksMCwzLjY5LDAsMy42OSAgICAgICBjLTIuMDQsMC0yLjA0LDAtMi4wNCwwYy0wLjM4LTEuMDUtMS4zNi0xLjg4LTIuNTctMS44OHMtMi4yNywwLjgzLTIuNjUsMS44OGMtMS4xMywwLTEuMTMsMC0xLjEzLDBMMi44LDQwLjMyeiBNNi41OCw0My4wNCAgICAgICBjLTAuNTMsMC0wLjkxLTAuMzgtMC45MS0wLjkxYzAtMC40NSwwLjM4LTAuOTEsMC45MS0wLjkxYzAuNDUsMCwwLjksMC40NiwwLjksMC45MUM3LjQ4LDQyLjY2LDcuMDMsNDMuMDQsNi41OCw0My4wNHogICAgICAgIE0yMy4yOCw0My4wNGMtMC41MywwLTAuOS0wLjM4LTAuOS0wLjkxYzAtMC40NSwwLjM3LTAuOTEsMC45LTAuOTFjMC41MywwLDAuOTEsMC40NiwwLjkxLDAuOTEgICAgICAgQzI0LjE5LDQyLjY2LDIzLjgxLDQzLjA0LDIzLjI4LDQzLjA0eiIvPiYjeGE7CQkJCTwvZz4mI3hhOwkJCQk8ZyBpZD0ic2hhcGU1NTA0LTE0IiB0cmFuc2Zvcm09InRyYW5zbGF0ZSgxLjMxNzczLC0yLjEzMjg3KSI+JiN4YTsJCQkJCTx0aXRsZSBpZD0idGl0bGUxMTQxOTIiPlNoZWV0LjU1MDQ8L3RpdGxlPiYjeGE7CQkJCQk8cGF0aCBpZD0icGF0aDExNDE5NCIgaW5rc2NhcGU6Y29ubmVjdG9yLWN1cnZhdHVyZT0iMCIgc3R5bGU9ImZpbGw6IzAwQjBGMDsiIGQ9Ik0wLDEwLjU2VjQ1aDU4LjUyVjEwLjU2SDB6Ii8+JiN4YTsJCQkJPC9nPiYjeGE7CQkJPC9nPiYjeGE7CQk8L2c+JiN4YTsJCTxnIGlkPSJncm91cDU1MDUtMTYiIHRyYW5zZm9ybT0idHJhbnNsYXRlKDQuMjkwNDUsLTYuNzUwMDEpIj4mI3hhOwkJCTx0aXRsZSBpZD0idGl0bGUxMTQxOTkiPldlYjwvdGl0bGU+JiN4YTsJCQk8ZyBpZD0ic2hhcGU1NTA2LTE3Ij4mI3hhOwkJCQk8dGl0bGUgaWQ9InRpdGxlMTE0MjAxIj5TaGVldC41NTA2PC90aXRsZT4mI3hhOwkJCQk8cGF0aCBpZD0icGF0aDExNDIwMyIgaW5rc2NhcGU6Y29ubmVjdG9yLWN1cnZhdHVyZT0iMCIgc3R5bGU9ImZpbGw6I0ZGRkZGRjsiIGQ9Ik0wLDIxLjg3VjQ1aDUyLjg3VjIxLjg3SDB6Ii8+JiN4YTsJCQk8L2c+JiN4YTsJCQk8ZyBpZD0ic2hhcGU1NTA3LTE5IiB0cmFuc2Zvcm09InRyYW5zbGF0ZSgwLC0yMy4xMzA5KSI+JiN4YTsJCQkJPHRpdGxlIGlkPSJ0aXRsZTExNDIwNiI+U2hlZXQuNTUwNzwvdGl0bGU+JiN4YTsJCQkJPHBhdGggaWQ9InBhdGgxMTQyMDgiIGlua3NjYXBlOmNvbm5lY3Rvci1jdXJ2YXR1cmU9IjAiIHN0eWxlPSJmaWxsOiM1MDUwNTA7IiBkPSJNMCw0Mi41NVY0NWg1Mi44N3YtMi40NUgweiIvPiYjeGE7CQkJPC9nPiYjeGE7CQkJPGcgaWQ9InNoYXBlNTUwOC0yMSIgdHJhbnNmb3JtPSJ0cmFuc2xhdGUoNTAuNzc0LC0yMy44MzE5KSI+JiN4YTsJCQkJPHRpdGxlIGlkPSJ0aXRsZTExNDIxMSI+U2hlZXQuNTUwODwvdGl0bGU+JiN4YTsJCQkJPHBhdGggaWQ9InBhdGgxMTQyMTMiIGlua3NjYXBlOmNvbm5lY3Rvci1jdXJ2YXR1cmU9IjAiIHN0eWxlPSJmaWxsOiNGOUY3Rjg7IiBkPSJNMS4wNSw0NWMtMC4zMSwwLTAuMzEsMC0wLjMxLDAgICAgICBjLTAuMTUtMC4zMy0wLjE1LTAuMzMtMC4xNS0wLjMzYy0wLjA2LTAuMDQtMC4wNi0wLjA0LTAuMDYtMC4wOWwwLDBjMCwwLjA1LDAsMC4wNSwwLDAuMDlDMC4zMyw0NSwwLjMzLDQ1LDAuMzMsNDUgICAgICBDMCw0NSwwLDQ1LDAsNDVjMC4zNy0wLjUzLDAuMzctMC41MywwLjM3LTAuNTNjLTAuMy0wLjUyLTAuMy0wLjUyLTAuMy0wLjUyYzAuMywwLDAuMywwLDAuMywwYzAuMTYsMC4zNSwwLjE2LDAuMzUsMC4xNiwwLjM1ICAgICAgdjAuMDRsMCwwbDAuMDYtMC4wNGMwLjE1LTAuMzUsMC4xNS0wLjM1LDAuMTUtMC4zNWMwLjMxLDAsMC4zMSwwLDAuMzEsMEMwLjcsNDQuNDcsMC43LDQ0LjQ3LDAuNyw0NC40N0wxLjA1LDQ1eiIvPiYjeGE7CQkJPC9nPiYjeGE7CQkJPGcgaWQ9InNoYXBlNTUwOS0yMyIgdHJhbnNmb3JtPSJ0cmFuc2xhdGUoNC45MDIzMiwtMTcuODczOSkiPiYjeGE7CQkJCTx0aXRsZSBpZD0idGl0bGUxMTQyMTYiPlNoZWV0LjU1MDk8L3RpdGxlPiYjeGE7CQkJCTxwYXRoIGlkPSJwYXRoMTE0MjE4IiBpbmtzY2FwZTpjb25uZWN0b3ItY3VydmF0dXJlPSIwIiBzdHlsZT0iZmlsbDojREZERkRGOyIgZD0iTTAsNDMuMjVWNDVoMjMuODF2LTEuNzVIMHoiLz4mI3hhOwkJCTwvZz4mI3hhOwkJCTxnIGlkPSJzaGFwZTU1MTAtMjUiIHRyYW5zZm9ybT0idHJhbnNsYXRlKDQuOTAyMzIsLTE0LjM2OTIpIj4mI3hhOwkJCQk8dGl0bGUgaWQ9InRpdGxlMTE0MjIxIj5TaGVldC41NTEwPC90aXRsZT4mI3hhOwkJCQk8cGF0aCBpZD0icGF0aDExNDIyMyIgaW5rc2NhcGU6Y29ubmVjdG9yLWN1cnZhdHVyZT0iMCIgc3R5bGU9ImZpbGw6I0RGREZERjsiIGQ9Ik0wLDQzLjZWNDVoMjMuODF2LTEuNEgweiIvPiYjeGE7CQkJPC9nPiYjeGE7CQkJPGcgaWQ9InNoYXBlNTUxMS0yNyIgdHJhbnNmb3JtPSJ0cmFuc2xhdGUoNC45MDIzMiwtMTAuODY0NSkiPiYjeGE7CQkJCTx0aXRsZSBpZD0idGl0bGUxMTQyMjYiPlNoZWV0LjU1MTE8L3RpdGxlPiYjeGE7CQkJCTxwYXRoIGlkPSJwYXRoMTE0MjI4IiBpbmtzY2FwZTpjb25uZWN0b3ItY3VydmF0dXJlPSIwIiBzdHlsZT0iZmlsbDojREZERkRGOyIgZD0iTTAsNDMuNlY0NWgyMy44MXYtMS40SDB6Ii8+JiN4YTsJCQk8L2c+JiN4YTsJCQk8ZyBpZD0ic2hhcGU1NTEyLTI5IiB0cmFuc2Zvcm09InRyYW5zbGF0ZSg0LjkwMjMyLC03LjM1OTg0KSI+JiN4YTsJCQkJPHRpdGxlIGlkPSJ0aXRsZTExNDIzMSI+U2hlZXQuNTUxMjwvdGl0bGU+JiN4YTsJCQkJPHBhdGggaWQ9InBhdGgxMTQyMzMiIGlua3NjYXBlOmNvbm5lY3Rvci1jdXJ2YXR1cmU9IjAiIHN0eWxlPSJmaWxsOiNERkRGREY7IiBkPSJNMCw0My42VjQ1aDIzLjgxdi0xLjRIMHoiLz4mI3hhOwkJCTwvZz4mI3hhOwkJCTxnIGlkPSJzaGFwZTU1MTMtMzEiIHRyYW5zZm9ybT0idHJhbnNsYXRlKDQuOTAyMzIsLTMuODU1MTUpIj4mI3hhOwkJCQk8dGl0bGUgaWQ9InRpdGxlMTE0MjM2Ij5TaGVldC41NTEzPC90aXRsZT4mI3hhOwkJCQk8cGF0aCBpZD0icGF0aDExNDIzOCIgaW5rc2NhcGU6Y29ubmVjdG9yLWN1cnZhdHVyZT0iMCIgc3R5bGU9ImZpbGw6I0RGREZERjsiIGQ9Ik0wLDQzLjZWNDVoMjMuODF2LTEuNEgweiIvPiYjeGE7CQkJPC9nPiYjeGE7CQkJPGcgaWQ9InNoYXBlNTUxNC0zMyIgdHJhbnNmb3JtPSJ0cmFuc2xhdGUoMzAuODE0NiwtMy44NTUxNSkiPiYjeGE7CQkJCTx0aXRsZSBpZD0idGl0bGUxMTQyNDEiPlNoZWV0LjU1MTQ8L3RpdGxlPiYjeGE7CQkJCTxwYXRoIGlkPSJwYXRoMTE0MjQzIiBpbmtzY2FwZTpjb25uZWN0b3ItY3VydmF0dXJlPSIwIiBzdHlsZT0iZmlsbDojREZERkRGOyIgZD0iTTAsMjkuMjNWNDVoMTguNTZWMjkuMjNIMHoiLz4mI3hhOwkJCTwvZz4mI3hhOwkJPC9nPiYjeGE7CTwvZz4mI3hhOzwvZz4mI3hhOzwvc3ZnPg==;dashed=1;dashPattern=1 2;" vertex="1" parent="DP-uBIAViVgrm5IQE9GF-5">
          <mxGeometry x="10" y="137.5" width="90" height="66.4" as="geometry" />
        </mxCell>
        <mxCell id="DP-uBIAViVgrm5IQE9GF-11" value="WebApp&lt;br&gt;Eoffice" style="text;html=1;resizable=0;autosize=1;align=center;verticalAlign=middle;points=[];fillColor=none;strokeColor=none;rounded=0;dashed=1;dashPattern=1 2;fontStyle=1;fontColor=#3333FF;" vertex="1" parent="DP-uBIAViVgrm5IQE9GF-5">
          <mxGeometry x="20" y="159.99999999999997" width="60" height="30" as="geometry" />
        </mxCell>
        <mxCell id="DP-uBIAViVgrm5IQE9GF-8" value="Client Apps" style="text;html=1;resizable=0;autosize=1;align=center;verticalAlign=middle;points=[];fillColor=none;strokeColor=none;rounded=0;dashed=1;dashPattern=1 2;" vertex="1" parent="1">
          <mxGeometry x="40" y="260" width="80" height="20" as="geometry" />
        </mxCell>
        <mxCell id="DP-uBIAViVgrm5IQE9GF-13" value="" style="swimlane;startSize=0;dashed=1;fontColor=#3333FF;strokeWidth=2;" vertex="1" parent="1">
          <mxGeometry x="230" y="290" width="110" height="240" as="geometry" />
        </mxCell>
        <mxCell id="DP-uBIAViVgrm5IQE9GF-21" style="edgeStyle=orthogonalEdgeStyle;rounded=0;orthogonalLoop=1;jettySize=auto;html=1;exitX=1;exitY=0.5;exitDx=0;exitDy=0;entryX=-0.029;entryY=0.418;entryDx=0;entryDy=0;entryPerimeter=0;fontColor=#3333FF;" edge="1" parent="1" source="DP-uBIAViVgrm5IQE9GF-10" target="DP-uBIAViVgrm5IQE9GF-15">
          <mxGeometry relative="1" as="geometry" />
        </mxCell>
        <mxCell id="DP-uBIAViVgrm5IQE9GF-34" value="" style="shape=image;verticalLabelPosition=bottom;labelBackgroundColor=#ffffff;verticalAlign=top;aspect=fixed;imageAspect=0;image=data:image/svg+xml,PHN2ZyB4bWxuczpldj0iaHR0cDovL3d3dy53My5vcmcvMjAwMS94bWwtZXZlbnRzIiB4bWxucz0iaHR0cDovL3d3dy53My5vcmcvMjAwMC9zdmciIHhtbG5zOnhsaW5rPSJodHRwOi8vd3d3LnczLm9yZy8xOTk5L3hsaW5rIiB2ZXJzaW9uPSIxLjEiIGlkPSJMYXllcl8xIiB4PSIwcHgiIHk9IjBweCIgdmlld0JveD0iMCAwIDI0LjcyIDI1LjAxIiBzdHlsZT0iZW5hYmxlLWJhY2tncm91bmQ6bmV3IDAgMCAyNC43MiAyNS4wMTsiIHhtbDpzcGFjZT0icHJlc2VydmUiPiYjeGE7PGc+JiN4YTsJPHRpdGxlPlBhZ2UtMTwvdGl0bGU+JiN4YTsJPGcgaWQ9Imdyb3VwMTY3My0xIj4mI3hhOwkJPHRpdGxlPkFjY2VzcyBDb250cm9sIFNlcnZpY2U8L3RpdGxlPiYjeGE7CQk8ZyBpZD0ic2hhcGUxNjc0LTIiPiYjeGE7CQkJPHRpdGxlPlNoZWV0LjE2NzQ8L3RpdGxlPiYjeGE7CQkJPHBhdGggc3R5bGU9ImZpbGw6IzNGNTc2NTsiIGQ9Ik0yNC43MiwxNC45TDEyLjQ3LDAuMjdWMC4wOEwxMi40LDAuMTVMMTIuMjQsMHYwLjM0TDAsMTQuODZsMTIuMzIsMTAuMDN2MC4xMkwyNC43MiwxNC45eiAgICAgIE0xMC44MywyMC4wM3YtNi4yNGMtMS4xNS0wLjYyLTEuOTItMS44NC0xLjkyLTMuM2MwLTIuMDMsMS41NC0zLjY3LDMuNDUtMy42NGMxLjkxLDAsMy40NCwxLjY1LDMuNDQsMy42NCAgICAgYzAsMS40Ni0wLjc2LDIuNjgtMS45MSwzLjN2MS4yMmwtMC4wNCwwLjEybC0xLjE1LDEuMjJsMS4xOSwxLjNsMC4wNCwwLjA4bC0xLjE1LDEuMTlsMS4wNywxLjE1bC0xLjQ5LDEuNTdMMTAuODMsMjAuMDN6Ii8+JiN4YTsJCTwvZz4mI3hhOwkJPGcgaWQ9InNoYXBlMTY3NS00IiB0cmFuc2Zvcm09InRyYW5zbGF0ZSgxMS4xMzM4LC0xNC4yODM1KSI+JiN4YTsJCQk8dGl0bGU+U2hlZXQuMTY3NTwvdGl0bGU+JiN4YTsJCQk8cGF0aCBzdHlsZT0iZmlsbDojM0Y1NzY1OyIgZD0iTTIuNTMsMjMuNzhjMC0wLjYxLTAuNzMtMS4wNy0xLjMxLTEuMTFDMC42MSwyMi43MSwwLDIzLjEzLDAsMjMuNzRzMC42MSwxLjI3LDEuMTksMS4yNyAgICAgQzEuNzYsMjUuMDEsMi41MywyNC4zOSwyLjUzLDIzLjc4eiIvPiYjeGE7CQk8L2c+JiN4YTsJPC9nPiYjeGE7PC9nPiYjeGE7PC9zdmc+;fontColor=#000000;strokeColor=#007FFF;strokeWidth=2;fillColor=#99CCFF;" vertex="1" parent="1">
          <mxGeometry x="160" y="397.5" width="25" height="25" as="geometry" />
        </mxCell>
        <mxCell id="DP-uBIAViVgrm5IQE9GF-35" value="" style="shape=image;verticalLabelPosition=bottom;labelBackgroundColor=#ffffff;verticalAlign=top;aspect=fixed;imageAspect=0;image=data:image/svg+xml,PHN2ZyB4bWxuczpjYz0iaHR0cDovL2NyZWF0aXZlY29tbW9ucy5vcmcvbnMjIiB4bWxuczpkYz0iaHR0cDovL3B1cmwub3JnL2RjL2VsZW1lbnRzLzEuMS8iIHhtbG5zOmlua3NjYXBlPSJodHRwOi8vd3d3Lmlua3NjYXBlLm9yZy9uYW1lc3BhY2VzL2lua3NjYXBlIiB4bWxuczpyZGY9Imh0dHA6Ly93d3cudzMub3JnLzE5OTkvMDIvMjItcmRmLXN5bnRheC1ucyMiIHhtbG5zOnNvZGlwb2RpPSJodHRwOi8vc29kaXBvZGkuc291cmNlZm9yZ2UubmV0L0RURC9zb2RpcG9kaS0wLmR0ZCIgeG1sbnM6c3ZnPSJodHRwOi8vd3d3LnczLm9yZy8yMDAwL3N2ZyIgeG1sbnM9Imh0dHA6Ly93d3cudzMub3JnLzIwMDAvc3ZnIiB4bWxuczp4bGluaz0iaHR0cDovL3d3dy53My5vcmcvMTk5OS94bGluayIgdmVyc2lvbj0iMS4xIiBpZD0ic3ZnNDY5MDQiIGlua3NjYXBlOnZlcnNpb249IjAuOTIuMyAoMjQwNTU0NiwgMjAxOC0wMy0xMSkiIHNvZGlwb2RpOmRvY25hbWU9ImRhdGFiYXNlX3NlcnZlci5zdmciIHg9IjBweCIgeT0iMHB4IiB2aWV3Qm94PSIwIDAgNjMuMDQgNzkuNDkiIHN0eWxlPSJlbmFibGUtYmFja2dyb3VuZDpuZXcgMCAwIDYzLjA0IDc5LjQ5OyIgeG1sOnNwYWNlPSJwcmVzZXJ2ZSI+JiN4YTs8c29kaXBvZGk6bmFtZWR2aWV3IGJvcmRlcmNvbG9yPSIjNjY2NjY2IiBib3JkZXJvcGFjaXR5PSIxIiBmaXQtbWFyZ2luLWJvdHRvbT0iMCIgZml0LW1hcmdpbi1sZWZ0PSIwIiBmaXQtbWFyZ2luLXJpZ2h0PSIwIiBmaXQtbWFyZ2luLXRvcD0iMCIgZ3JpZHRvbGVyYW5jZT0iMTAiIGd1aWRldG9sZXJhbmNlPSIxMCIgaWQ9Im5hbWVkdmlldzQ2OTA2IiBpbmtzY2FwZTpjdXJyZW50LWxheWVyPSJzdmc0NjkwNCIgaW5rc2NhcGU6Y3g9IjM0Ljg2MTExOCIgaW5rc2NhcGU6Y3k9IjIzLjY2MjU4OCIgaW5rc2NhcGU6cGFnZW9wYWNpdHk9IjAiIGlua3NjYXBlOnBhZ2VzaGFkb3c9IjIiIGlua3NjYXBlOndpbmRvdy1oZWlnaHQ9IjEwMTciIGlua3NjYXBlOndpbmRvdy1tYXhpbWl6ZWQ9IjEiIGlua3NjYXBlOndpbmRvdy13aWR0aD0iMTkyMCIgaW5rc2NhcGU6d2luZG93LXg9Ii04IiBpbmtzY2FwZTp3aW5kb3cteT0iLTgiIGlua3NjYXBlOnpvb209IjQuMDE0MjQ1OCIgb2JqZWN0dG9sZXJhbmNlPSIxMCIgcGFnZWNvbG9yPSIjZmZmZmZmIiBzaG93Z3JpZD0iZmFsc2UiPiYjeGE7CTwvc29kaXBvZGk6bmFtZWR2aWV3PiYjeGE7PGcgaWQ9Imc0NjkwMiIgdHJhbnNmb3JtPSJ0cmFuc2xhdGUoLTAuNzUsLTAuNzUwMTY2NjUpIj4mI3hhOwk8dGl0bGUgaWQ9InRpdGxlNDY4MDEiPlBhZ2UtMTwvdGl0bGU+JiN4YTsJPGcgaWQ9Imdyb3VwMjQ0OC0xIiB0cmFuc2Zvcm09InRyYW5zbGF0ZSgxLjUsLTEuNSkiPiYjeGE7CQk8dGl0bGUgaWQ9InRpdGxlNDY4MDMiPkRhdGFiYXNlIFNlcnZlcjwvdGl0bGU+JiN4YTsJCTxnIGlkPSJncm91cDI0NDktMiIgdHJhbnNmb3JtPSJ0cmFuc2xhdGUoMCwtOS43NDI1KSI+JiN4YTsJCQk8dGl0bGUgaWQ9InRpdGxlNDY4MDUiPmczMTE0LjIxMDg0PC90aXRsZT4mI3hhOwkJCTxnIGlkPSJzaGFwZTI0NTAtMyI+JiN4YTsJCQkJPHRpdGxlIGlkPSJ0aXRsZTQ2ODA3Ij5yZWN0MzA4NjwvdGl0bGU+JiN4YTsJCQkJJiN4YTsJCQkJCTxyZWN0IGlkPSJyZWN0NDY4MDkiIHk9IjEyLjc0IiBzdHlsZT0iZmlsbDojRkZGRkZGO3N0cm9rZTojNTU2QThBO3N0cm9rZS13aWR0aDoxLjU7c3Ryb2tlLW1pdGVybGltaXQ6MzsiIHdpZHRoPSIzOS43NSIgaGVpZ2h0PSI2OC4yNSIvPiYjeGE7CQkJPC9nPiYjeGE7CQkJPGcgaWQ9Imdyb3VwMjQ1MS01IiB0cmFuc2Zvcm09InRyYW5zbGF0ZSgxLjUsLTAuNzUpIj4mI3hhOwkJCQk8dGl0bGUgaWQ9InRpdGxlNDY4MTIiPmczMTA2PC90aXRsZT4mI3hhOwkJCQk8ZyBpZD0ic2hhcGUyNDUyLTYiIHRyYW5zZm9ybT0idHJhbnNsYXRlKDE4KSI+JiN4YTsJCQkJCTx0aXRsZSBpZD0idGl0bGU0NjgxNCI+cmVjdDMwODg8L3RpdGxlPiYjeGE7CQkJCQk8cmVjdCBpZD0icmVjdDQ2ODE2IiB5PSIxNC4yNCIgc3R5bGU9ImZpbGw6I0U1RTVFNTsiIHdpZHRoPSIxOS41IiBoZWlnaHQ9IjY2Ljc1Ii8+JiN4YTsJCQkJPC9nPiYjeGE7CQkJCTxnIGlkPSJzaGFwZTI0NTMtOCIgdHJhbnNmb3JtPSJ0cmFuc2xhdGUoMCwtNDgpIj4mI3hhOwkJCQkJPHRpdGxlIGlkPSJ0aXRsZTQ2ODE5Ij5yZWN0MzA5MDwvdGl0bGU+JiN4YTsJCQkJCTxyZWN0IGlkPSJyZWN0NDY4MjEiIHk9Ijc4Ljc0IiBzdHlsZT0iZmlsbDojMkJDN0Y0OyIgd2lkdGg9IjE4IiBoZWlnaHQ9IjIuMjUiLz4mI3hhOwkJCQk8L2c+JiN4YTsJCQkJPGcgaWQ9InNoYXBlMjQ1NC0xMCIgdHJhbnNmb3JtPSJ0cmFuc2xhdGUoMCwtNTguNSkiPiYjeGE7CQkJCQk8dGl0bGUgaWQ9InRpdGxlNDY4MjQiPnBvbHlnb24zMDkyPC90aXRsZT4mI3hhOwkJCQkJPHJlY3QgaWQ9InJlY3Q0NjgyNiIgeT0iNzguNzQiIHN0eWxlPSJmaWxsOm5vbmU7IiB3aWR0aD0iMjciIGhlaWdodD0iMi4yNSIvPiYjeGE7CQkJCTwvZz4mI3hhOwkJCQk8ZyBpZD0ic2hhcGUyNDU1LTEyIiB0cmFuc2Zvcm09InRyYW5zbGF0ZSgwLC01OC41KSI+JiN4YTsJCQkJCTx0aXRsZSBpZD0idGl0bGU0NjgyOSI+cG9seWxpbmUzMDk0PC90aXRsZT4mI3hhOwkJCQkJPHJlY3QgaWQ9InJlY3Q0NjgzMSIgeT0iNzguNzQiIHN0eWxlPSJmaWxsOm5vbmU7IiB3aWR0aD0iMjciIGhlaWdodD0iMi4yNSIvPiYjeGE7CQkJCTwvZz4mI3hhOwkJCQk8ZyBpZD0ic2hhcGUyNDU2LTE0IiB0cmFuc2Zvcm09InRyYW5zbGF0ZSgwLC01My4yNSkiPiYjeGE7CQkJCQk8dGl0bGUgaWQ9InRpdGxlNDY4MzQiPnJlY3QzMDk2PC90aXRsZT4mI3hhOwkJCQkJPHJlY3QgaWQ9InJlY3Q0NjgzNiIgeT0iNzguNzQiIHN0eWxlPSJmaWxsOiMyQkM3RjQ7IiB3aWR0aD0iMTgiIGhlaWdodD0iMi4yNSIvPiYjeGE7CQkJCTwvZz4mI3hhOwkJCQk8ZyBpZD0ic2hhcGUyNDU3LTE2IiB0cmFuc2Zvcm09InRyYW5zbGF0ZSgwLC01OC41KSI+JiN4YTsJCQkJCTx0aXRsZSBpZD0idGl0bGU0NjgzOSI+cmVjdDMwOTg8L3RpdGxlPiYjeGE7CQkJCQk8cmVjdCBpZD0icmVjdDQ2ODQxIiB5PSI3OC43NCIgc3R5bGU9ImZpbGw6IzJCQzdGNDsiIHdpZHRoPSIxOCIgaGVpZ2h0PSIyLjI1Ii8+JiN4YTsJCQkJPC9nPiYjeGE7CQkJCTxnIGlkPSJzaGFwZTI0NTgtMTgiIHRyYW5zZm9ybT0idHJhbnNsYXRlKDE4LC00OCkiPiYjeGE7CQkJCQk8dGl0bGUgaWQ9InRpdGxlNDY4NDQiPnJlY3QzMTAwPC90aXRsZT4mI3hhOwkJCQkJPHJlY3QgaWQ9InJlY3Q0Njg0NiIgeT0iNzguNzQiIHN0eWxlPSJmaWxsOiM1NTZBOEE7IiB3aWR0aD0iMTkuNSIgaGVpZ2h0PSIyLjI1Ii8+JiN4YTsJCQkJPC9nPiYjeGE7CQkJCTxnIGlkPSJzaGFwZTI0NTktMjAiIHRyYW5zZm9ybT0idHJhbnNsYXRlKDE4LC01My4yNSkiPiYjeGE7CQkJCQk8dGl0bGUgaWQ9InRpdGxlNDY4NDkiPnJlY3QzMTAyPC90aXRsZT4mI3hhOwkJCQkJPHJlY3QgaWQ9InJlY3Q0Njg1MSIgeT0iNzguNzQiIHN0eWxlPSJmaWxsOiM1NTZBOEE7IiB3aWR0aD0iMTkuNSIgaGVpZ2h0PSIyLjI1Ii8+JiN4YTsJCQkJPC9nPiYjeGE7CQkJCTxnIGlkPSJzaGFwZTI0NjAtMjIiIHRyYW5zZm9ybT0idHJhbnNsYXRlKDE4LC01OC41KSI+JiN4YTsJCQkJCTx0aXRsZSBpZD0idGl0bGU0Njg1NCI+cmVjdDMxMDQ8L3RpdGxlPiYjeGE7CQkJCQk8cmVjdCBpZD0icmVjdDQ2ODU2IiB5PSI3OC43NCIgc3R5bGU9ImZpbGw6IzU1NkE4QTsiIHdpZHRoPSIxOS41IiBoZWlnaHQ9IjIuMjUiLz4mI3hhOwkJCQk8L2c+JiN4YTsJCQk8L2c+JiN4YTsJCQk8ZyBpZD0ic2hhcGUyNDYxLTI0IiB0cmFuc2Zvcm09InRyYW5zbGF0ZSgwLjc1LC01OS4yNSkiPiYjeGE7CQkJCTx0aXRsZSBpZD0idGl0bGU0Njg2MCI+cmVjdDMxMDg8L3RpdGxlPiYjeGE7CQkJCTxyZWN0IGlkPSJyZWN0NDY4NjIiIHk9Ijc4Ljc0IiBzdHlsZT0iZmlsbDojNTU2QThBOyIgd2lkdGg9IjIuMjUiIGhlaWdodD0iMi4yNSIvPiYjeGE7CQkJPC9nPiYjeGE7CQkJPGcgaWQ9InNoYXBlMjQ2Mi0yNiIgdHJhbnNmb3JtPSJ0cmFuc2xhdGUoMC43NSwtNTQpIj4mI3hhOwkJCQk8dGl0bGUgaWQ9InRpdGxlNDY4NjUiPnJlY3QzMTEwPC90aXRsZT4mI3hhOwkJCQk8cmVjdCBpZD0icmVjdDQ2ODY3IiB5PSI3OC43NCIgc3R5bGU9ImZpbGw6IzU1NkE4QTsiIHdpZHRoPSIyLjI1IiBoZWlnaHQ9IjIuMjUiLz4mI3hhOwkJCTwvZz4mI3hhOwkJCTxnIGlkPSJzaGFwZTI0NjMtMjgiIHRyYW5zZm9ybT0idHJhbnNsYXRlKDAuNzUsLTQ4Ljc1KSI+JiN4YTsJCQkJPHRpdGxlIGlkPSJ0aXRsZTQ2ODcwIj5yZWN0MzExMjwvdGl0bGU+JiN4YTsJCQkJPHJlY3QgaWQ9InJlY3Q0Njg3MiIgeT0iNzguNzQiIHN0eWxlPSJmaWxsOiM1NTZBOEE7IiB3aWR0aD0iMi4yNSIgaGVpZ2h0PSIyLjI1Ii8+JiN4YTsJCQk8L2c+JiN4YTsJCTwvZz4mI3hhOwkJPGcgaWQ9Imdyb3VwMjQ2NC0zMCIgdHJhbnNmb3JtPSJ0cmFuc2xhdGUoMjYuMjUpIj4mI3hhOwkJCTx0aXRsZSBpZD0idGl0bGU0Njg3NiI+ZzMxMjQuMjEwOTk8L3RpdGxlPiYjeGE7CQkJPGcgaWQ9InNoYXBlMjQ2NS0zMSI+JiN4YTsJCQkJPHRpdGxlIGlkPSJ0aXRsZTQ2ODc4Ij5wYXRoMzExNjwvdGl0bGU+JiN4YTsJCQkJPHBhdGggaWQ9InBhdGg0Njg4MCIgaW5rc2NhcGU6Y29ubmVjdG9yLWN1cnZhdHVyZT0iMCIgc3R5bGU9ImZpbGw6I0ZGRkZGRjsiIGQ9Ik0zMS43OSw0MC44MmwtMTAuMzUsMC4wOUwwLDQxLjA5djMzLjM1ICAgICAgYzAsMy40Miw3LjUsNi4zNywxNy4yNSw2LjU1aDAuMzdjMS4zMiwwLDIuNi0wLjA3LDMuODItMC4xOWMzLjU3LTAuMjIsNy4wOC0xLjA3LDEwLjM1LTIuNTNjMi4xOS0xLjA5LDMuNDYtMi40MiwzLjQ2LTMuODMgICAgICBWNDAuNzlMMzEuNzksNDAuODJ6Ii8+JiN4YTsJCQk8L2c+JiN4YTsJCQk8ZyBpZD0ic2hhcGUyNDY2LTMzIiB0cmFuc2Zvcm09InRyYW5zbGF0ZSgyMS4xNSwtMC4xODc1KSI+JiN4YTsJCQkJPHRpdGxlIGlkPSJ0aXRsZTQ2ODgzIj5wYXRoMzExODwvdGl0bGU+JiN4YTsJCQkJPHBhdGggaWQ9InBhdGg0Njg4NSIgaW5rc2NhcGU6Y29ubmVjdG9yLWN1cnZhdHVyZT0iMCIgc3R5bGU9ImZpbGw6I0U1RTVFNTsiIGQ9Ik0xMC4zNSw0MS4wMXYzNy40NSAgICAgIEM3LjA4LDc5LjkyLDMuNTcsODAuNzcsMCw4MC45OVY0MS4xTDEwLjM1LDQxLjAxeiIvPiYjeGE7CQkJPC9nPiYjeGE7CQkJPGcgaWQ9InNoYXBlMjQ2Ny0zNSI+JiN4YTsJCQkJPHRpdGxlIGlkPSJ0aXRsZTQ2ODg4Ij5wYXRoMzEyMDwvdGl0bGU+JiN4YTsJCQkJPHBhdGggaWQ9InBhdGg0Njg5MCIgaW5rc2NhcGU6Y29ubmVjdG9yLWN1cnZhdHVyZT0iMCIgc3R5bGU9ImZpbGw6bm9uZTsiIGQ9Ik0wLDQxLjA5djMzLjM1YzAsMy40Miw3LjQ2LDYuMzcsMTcuMjUsNi41NWgwLjM3ICAgICAgYzkuOTctMC4xMSwxNy42My0zLjA5LDE3LjYzLTYuNTVWNDAuNzlMMCw0MS4wOXoiLz4mI3hhOwkJCQkmI3hhOwkJCQkJPHBhdGggaWQ9InBhdGg0Njg5MiIgaW5rc2NhcGU6Y29ubmVjdG9yLWN1cnZhdHVyZT0iMCIgc3R5bGU9ImZpbGw6bm9uZTtzdHJva2U6IzU1NkE4QTtzdHJva2Utd2lkdGg6MS41O3N0cm9rZS1taXRlcmxpbWl0OjM7IiBkPSIgICAgICBNMCw0MS4wOXYzMy4zNWMwLDMuNDIsNy40Niw2LjM3LDE3LjI1LDYuNTVoMC4zN2M5Ljk3LTAuMTEsMTcuNjMtMy4wOSwxNy42My02LjU1VjQwLjc5Ii8+JiN4YTsJCQk8L2c+JiN4YTsJCQk8ZyBpZD0ic2hhcGUyNDY4LTM4IiB0cmFuc2Zvcm09InRyYW5zbGF0ZSgwLjA0NSwtMzMuNDQyNSkiPiYjeGE7CQkJCTx0aXRsZSBpZD0idGl0bGU0Njg5NSI+cGF0aDMxMjI8L3RpdGxlPiYjeGE7CQkJCSYjeGE7CQkJCQk8cGF0aCBpZD0icGF0aDQ2ODk3IiBpbmtzY2FwZTpjb25uZWN0b3ItY3VydmF0dXJlPSIwIiBzdHlsZT0iZmlsbDojQkFEODBBO3N0cm9rZTojNTU2QThBO3N0cm9rZS13aWR0aDoxLjU7c3Ryb2tlLW1pdGVybGltaXQ6MzsiIGQ9IiAgICAgIE0zNS4yNSw3NC42MmMwLDMuNTItNy44OSw2LjM3LTE3LjYzLDYuMzdDNy44OSw4MC45OSwwLDc4LjE0LDAsNzQuNjJjMC0zLjUxLDguMTMtNi4zNiwxNy44Ni02LjM2ICAgICAgQzI3LjU4LDY4LjI2LDM1LjI1LDcxLjExLDM1LjI1LDc0LjYyeiIvPiYjeGE7CQkJPC9nPiYjeGE7CQk8L2c+JiN4YTsJPC9nPiYjeGE7PC9nPiYjeGE7PC9zdmc+;fontColor=#000000;strokeColor=#007FFF;strokeWidth=2;fillColor=#99CCFF;" vertex="1" parent="1">
          <mxGeometry x="560" y="570" width="63" height="79" as="geometry" />
        </mxCell>
        <mxCell id="DP-uBIAViVgrm5IQE9GF-36" value="" style="swimlane;startSize=0;fontColor=#000000;strokeColor=#007FFF;strokeWidth=2;fillColor=#99CCFF;dashed=1;dashPattern=1 1;" vertex="1" parent="1">
          <mxGeometry x="490" y="560" width="200" height="120" as="geometry" />
        </mxCell>
        <mxCell id="DP-uBIAViVgrm5IQE9GF-37" value="Oracle DB&lt;br&gt;Histaff" style="text;html=1;resizable=0;autosize=1;align=center;verticalAlign=middle;points=[];fillColor=none;strokeColor=none;rounded=0;dashed=1;dashPattern=1 1;fontColor=#000000;fontStyle=1" vertex="1" parent="DP-uBIAViVgrm5IQE9GF-36">
          <mxGeometry x="61" y="89" width="70" height="30" as="geometry" />
        </mxCell>
        <mxCell id="DP-uBIAViVgrm5IQE9GF-38" style="edgeStyle=orthogonalEdgeStyle;rounded=0;orthogonalLoop=1;jettySize=auto;html=1;entryX=0.5;entryY=0;entryDx=0;entryDy=0;fontColor=#000000;" edge="1" parent="1" source="DP-uBIAViVgrm5IQE9GF-26" target="DP-uBIAViVgrm5IQE9GF-35">
          <mxGeometry relative="1" as="geometry" />
        </mxCell>
      </root>
    </mxGraphModel>
  </diagram>
</mxfile>
